<mxfile host="app.diagrams.net" modified="2021-05-22T19:31:58.639Z" agent="5.0 (X11)" etag="MN9MXdP4X86z80bVoA-c" version="14.6.0" type="github">
  <diagram id="691b31df-7cfc-d80e-552c-7aa9f8c0b5f7" name="Page-1">
    <mxGraphModel dx="3820" dy="2170" grid="0" gridSize="13.779499999999999" guides="1" tooltips="1" connect="1" arrows="0" fold="1" page="0" pageScale="1" pageWidth="826" pageHeight="1169" background="#ffffff" math="1" shadow="0">
      <root>
        <mxCell id="0" />
        <mxCell id="1" parent="0" />
        <mxCell id="kPeBdNNHWxssJcFeY2An-231" value="" style="shape=image;labelBackgroundColor=#ffffff;verticalAlign=top;imageAspect=0;image=https://upload.wikimedia.org/wikipedia/commons/a/a6/Signal-speech-martin-de.png;direction=north;rounded=1;rotation=90;editable=1;sketch=0;" vertex="1" parent="1">
          <mxGeometry x="1044.85" y="-178.89" width="143.81" height="573.54" as="geometry" />
        </mxCell>
        <mxCell id="kPeBdNNHWxssJcFeY2An-95" style="edgeStyle=orthogonalEdgeStyle;rounded=0;orthogonalLoop=1;jettySize=auto;html=1;exitX=0.5;exitY=1;exitDx=0;exitDy=0;sketch=0;" edge="1" parent="1">
          <mxGeometry relative="1" as="geometry">
            <mxPoint x="410.86999999999983" y="751.58" as="sourcePoint" />
            <mxPoint x="410.86999999999983" y="751.58" as="targetPoint" />
          </mxGeometry>
        </mxCell>
        <mxCell id="RYZ4we6UooMHVPL5Nkm8-538" value="COPYRIGHT" style="text;html=1;strokeColor=none;fillColor=none;align=center;verticalAlign=middle;whiteSpace=wrap;shadow=0;labelBackgroundColor=#FFBAFA;fontFamily=Verdana;fontSize=26;fontColor=#000000;rotation=1;labelBorderColor=#000000;rounded=1;sketch=0;" parent="1" vertex="1">
          <mxGeometry x="1263.8400000000001" y="82.79000000000013" width="40" height="20" as="geometry" />
        </mxCell>
        <mxCell id="kPeBdNNHWxssJcFeY2An-1075" value="" style="endArrow=none;dashed=1;html=1;fontSize=34;strokeColor=#000000;entryX=0;entryY=1;entryDx=0;entryDy=0;entryPerimeter=0;exitX=0;exitY=0;exitDx=0;exitDy=0;exitPerimeter=0;strokeWidth=2;sketch=0;" edge="1" parent="1">
          <mxGeometry x="701.5051499999998" y="-0.021816937158845917" width="50" height="50" as="geometry">
            <mxPoint x="1412.7301500000003" y="64.24635243442798" as="sourcePoint" />
            <mxPoint x="1412.7301500000003" y="300.44818306284105" as="targetPoint" />
          </mxGeometry>
        </mxCell>
        <mxCell id="kPeBdNNHWxssJcFeY2An-945" value="" style="rounded=1;whiteSpace=wrap;html=1;dashed=1;dashPattern=1 2;fontSize=34;strokeColor=#000000;strokeWidth=1;opacity=70;fillColor=#eeffd7;sketch=0;" vertex="1" parent="1">
          <mxGeometry x="815.9987389033099" y="326.17268306284143" width="610" height="260" as="geometry" />
        </mxCell>
        <mxCell id="kPeBdNNHWxssJcFeY2An-947" value="" style="verticalLabelPosition=bottom;verticalAlign=top;html=1;shape=mxgraph.basic.patternFillRect;fillStyle=hor;step=32.5;fillStrokeWidth=0.5;fillStrokeColor=#212121;rounded=1;fontSize=34;strokeWidth=1;strokeColor=none;fillColor=#FFD7EE;sketch=0;" vertex="1" parent="1">
          <mxGeometry x="830.6087389033098" y="170.47268306284147" width="23.622" height="130" as="geometry" />
        </mxCell>
        <mxCell id="kPeBdNNHWxssJcFeY2An-948" value="" style="verticalLabelPosition=bottom;verticalAlign=top;html=1;shape=mxgraph.basic.patternFillRect;fillStyle=hor;step=32.5;fillStrokeWidth=0.5;fillStrokeColor=#212121;rounded=1;fontSize=34;strokeWidth=1;strokeColor=none;fillColor=#FFD7EE;sketch=0;" vertex="1" parent="1">
          <mxGeometry x="869.9787389033097" y="170.47268306284147" width="23.622" height="130" as="geometry" />
        </mxCell>
        <mxCell id="kPeBdNNHWxssJcFeY2An-949" value="" style="ellipse;whiteSpace=wrap;html=1;fillColor=#f5f5f5;fontColor=#333333;fontStyle=4;shadow=0;rounded=1;rotation=90;aspect=fixed;sketch=0;" vertex="1" parent="1">
          <mxGeometry x="830.6087389033098" y="343.4266934457097" width="23.622" height="23.62" as="geometry" />
        </mxCell>
        <mxCell id="kPeBdNNHWxssJcFeY2An-950" value="" style="ellipse;whiteSpace=wrap;html=1;aspect=fixed;fillColor=#f5f5f5;fontColor=#333333;fontStyle=4;shadow=0;rounded=1;rotation=90;sketch=0;" vertex="1" parent="1">
          <mxGeometry x="1027.4587389033097" y="342.97669344570977" width="23.622" height="23.62" as="geometry" />
        </mxCell>
        <mxCell id="kPeBdNNHWxssJcFeY2An-951" value="" style="ellipse;whiteSpace=wrap;html=1;fillColor=#f5f5f5;fontColor=#333333;fontStyle=4;shadow=0;rounded=1;rotation=90;aspect=fixed;sketch=0;" vertex="1" parent="1">
          <mxGeometry x="988.0887389033098" y="342.97669344570977" width="23.622" height="23.62" as="geometry" />
        </mxCell>
        <mxCell id="kPeBdNNHWxssJcFeY2An-952" value="" style="ellipse;whiteSpace=wrap;html=1;fillColor=#f5f5f5;fontColor=#333333;fontStyle=4;shadow=0;rounded=1;rotation=90;aspect=fixed;sketch=0;" vertex="1" parent="1">
          <mxGeometry x="948.7187389033097" y="342.9526830628415" width="23.622" height="23.62" as="geometry" />
        </mxCell>
        <mxCell id="kPeBdNNHWxssJcFeY2An-953" value="" style="ellipse;whiteSpace=wrap;html=1;fillColor=#f5f5f5;fontColor=#333333;fontStyle=4;shadow=0;rounded=1;rotation=90;aspect=fixed;sketch=0;" vertex="1" parent="1">
          <mxGeometry x="909.3487389033098" y="342.9526830628415" width="23.622" height="23.62" as="geometry" />
        </mxCell>
        <mxCell id="kPeBdNNHWxssJcFeY2An-954" value="" style="ellipse;whiteSpace=wrap;html=1;fillColor=#f5f5f5;fontColor=#333333;fontStyle=4;shadow=0;rounded=1;rotation=90;aspect=fixed;sketch=0;" vertex="1" parent="1">
          <mxGeometry x="869.9787389033097" y="342.9526830628415" width="23.622" height="23.62" as="geometry" />
        </mxCell>
        <mxCell id="kPeBdNNHWxssJcFeY2An-955" value="" style="ellipse;whiteSpace=wrap;html=1;aspect=fixed;fillColor=#f5f5f5;fontColor=#333333;fontStyle=4;shadow=0;rounded=1;rotation=90;sketch=0;" vertex="1" parent="1">
          <mxGeometry x="1106.1987389033097" y="342.97669344570977" width="23.622" height="23.62" as="geometry" />
        </mxCell>
        <mxCell id="kPeBdNNHWxssJcFeY2An-956" value="" style="ellipse;whiteSpace=wrap;html=1;aspect=fixed;fillColor=#f5f5f5;fontColor=#333333;fontStyle=4;shadow=0;rounded=1;rotation=90;sketch=0;" vertex="1" parent="1">
          <mxGeometry x="1066.8287389033098" y="342.97669344570977" width="23.622" height="23.62" as="geometry" />
        </mxCell>
        <mxCell id="kPeBdNNHWxssJcFeY2An-957" value="" style="ellipse;whiteSpace=wrap;html=1;aspect=fixed;fillColor=#f5f5f5;fontColor=#333333;fontStyle=4;shadow=0;rounded=1;rotation=90;sketch=0;" vertex="1" parent="1">
          <mxGeometry x="1145.5687389033098" y="342.97669344570977" width="23.622" height="23.62" as="geometry" />
        </mxCell>
        <mxCell id="kPeBdNNHWxssJcFeY2An-958" value="" style="ellipse;whiteSpace=wrap;html=1;aspect=fixed;fillColor=#f5f5f5;fontColor=#333333;fontStyle=4;shadow=0;rounded=1;rotation=90;sketch=0;" vertex="1" parent="1">
          <mxGeometry x="1184.9387389033097" y="342.97669344570977" width="23.622" height="23.62" as="geometry" />
        </mxCell>
        <mxCell id="kPeBdNNHWxssJcFeY2An-959" value="" style="ellipse;whiteSpace=wrap;html=1;aspect=fixed;fillColor=#f5f5f5;fontColor=#333333;fontStyle=4;shadow=0;rounded=1;rotation=90;sketch=0;" vertex="1" parent="1">
          <mxGeometry x="1224.3087389033099" y="342.97669344570977" width="23.622" height="23.62" as="geometry" />
        </mxCell>
        <mxCell id="kPeBdNNHWxssJcFeY2An-960" value="" style="ellipse;whiteSpace=wrap;html=1;aspect=fixed;fillColor=#f5f5f5;fontColor=#333333;fontStyle=4;shadow=0;rounded=1;rotation=90;sketch=0;" vertex="1" parent="1">
          <mxGeometry x="1263.6787389033097" y="342.97669344570977" width="23.622" height="23.62" as="geometry" />
        </mxCell>
        <mxCell id="kPeBdNNHWxssJcFeY2An-961" value="" style="ellipse;whiteSpace=wrap;html=1;aspect=fixed;fillColor=#f5f5f5;fontColor=#333333;fontStyle=4;shadow=0;rounded=1;rotation=90;sketch=0;" vertex="1" parent="1">
          <mxGeometry x="1303.0487389033099" y="342.97669344570977" width="23.622" height="23.62" as="geometry" />
        </mxCell>
        <mxCell id="kPeBdNNHWxssJcFeY2An-962" value="" style="ellipse;whiteSpace=wrap;html=1;aspect=fixed;fillColor=#f5f5f5;fontColor=#333333;fontStyle=4;shadow=0;rounded=1;rotation=90;sketch=0;" vertex="1" parent="1">
          <mxGeometry x="1342.41873890331" y="342.97669344570977" width="23.622" height="23.62" as="geometry" />
        </mxCell>
        <mxCell id="kPeBdNNHWxssJcFeY2An-963" value="" style="ellipse;whiteSpace=wrap;html=1;aspect=fixed;fillColor=#f5f5f5;fontColor=#333333;fontStyle=4;shadow=0;rounded=1;rotation=90;sketch=0;" vertex="1" parent="1">
          <mxGeometry x="1381.7887389033099" y="342.97669344570977" width="23.622" height="23.62" as="geometry" />
        </mxCell>
        <mxCell id="kPeBdNNHWxssJcFeY2An-964" value="" style="ellipse;whiteSpace=wrap;html=1;aspect=fixed;fillColor=#f5f5f5;fontColor=#333333;fontStyle=4;shadow=0;rounded=1;rotation=90;sketch=0;" vertex="1" parent="1">
          <mxGeometry x="1027.878652790396" y="392.1651830628415" width="23.622" height="23.62" as="geometry" />
        </mxCell>
        <mxCell id="kPeBdNNHWxssJcFeY2An-965" style="edgeStyle=none;rounded=0;orthogonalLoop=1;jettySize=auto;html=1;exitX=1;exitY=0.5;exitDx=0;exitDy=0;entryX=0;entryY=0.5;entryDx=0;entryDy=0;fontSize=34;endArrow=classicThin;endFill=1;sketch=0;" edge="1" parent="1" source="kPeBdNNHWxssJcFeY2An-950" target="kPeBdNNHWxssJcFeY2An-964">
          <mxGeometry x="813.4530889033099" y="64.25000000000011" as="geometry" />
        </mxCell>
        <mxCell id="kPeBdNNHWxssJcFeY2An-966" style="edgeStyle=none;rounded=0;orthogonalLoop=1;jettySize=auto;html=1;exitX=1;exitY=0.5;exitDx=0;exitDy=0;entryX=0;entryY=0.5;entryDx=0;entryDy=0;fontSize=34;endArrow=classicThin;endFill=1;sketch=0;" edge="1" parent="1" source="kPeBdNNHWxssJcFeY2An-951" target="kPeBdNNHWxssJcFeY2An-964">
          <mxGeometry x="813.4530889033099" y="64.25000000000011" as="geometry" />
        </mxCell>
        <mxCell id="kPeBdNNHWxssJcFeY2An-967" value="" style="ellipse;whiteSpace=wrap;html=1;aspect=fixed;fillColor=#f5f5f5;fontColor=#333333;fontStyle=4;shadow=0;rounded=1;rotation=90;sketch=0;" vertex="1" parent="1">
          <mxGeometry x="988.4237533744324" y="392.1651830628415" width="23.622" height="23.62" as="geometry" />
        </mxCell>
        <mxCell id="kPeBdNNHWxssJcFeY2An-968" value="" style="ellipse;whiteSpace=wrap;html=1;aspect=fixed;fillColor=#f5f5f5;fontColor=#333333;fontStyle=4;shadow=0;rounded=1;rotation=90;sketch=0;" vertex="1" parent="1">
          <mxGeometry x="948.9688539584688" y="392.1651830628415" width="23.622" height="23.62" as="geometry" />
        </mxCell>
        <mxCell id="kPeBdNNHWxssJcFeY2An-969" style="edgeStyle=none;rounded=0;orthogonalLoop=1;jettySize=auto;html=1;exitX=1;exitY=0.5;exitDx=0;exitDy=0;entryX=0;entryY=0.5;entryDx=0;entryDy=0;fontSize=34;endArrow=classicThin;endFill=1;sketch=0;" edge="1" parent="1" source="kPeBdNNHWxssJcFeY2An-952" target="kPeBdNNHWxssJcFeY2An-968">
          <mxGeometry x="813.4530889033099" y="64.25000000000011" as="geometry" />
        </mxCell>
        <mxCell id="kPeBdNNHWxssJcFeY2An-970" style="edgeStyle=none;rounded=0;orthogonalLoop=1;jettySize=auto;html=1;exitX=1;exitY=0.5;exitDx=0;exitDy=0;entryX=0;entryY=0.5;entryDx=0;entryDy=0;fontSize=34;endArrow=classicThin;endFill=1;sketch=0;" edge="1" parent="1" source="kPeBdNNHWxssJcFeY2An-953" target="kPeBdNNHWxssJcFeY2An-968">
          <mxGeometry x="813.4530889033099" y="64.25000000000011" as="geometry" />
        </mxCell>
        <mxCell id="kPeBdNNHWxssJcFeY2An-971" value="" style="ellipse;whiteSpace=wrap;html=1;aspect=fixed;fillColor=#f5f5f5;fontColor=#333333;fontStyle=4;shadow=0;rounded=1;rotation=90;sketch=0;" vertex="1" parent="1">
          <mxGeometry x="909.5139545425052" y="392.1651830628415" width="23.622" height="23.62" as="geometry" />
        </mxCell>
        <mxCell id="kPeBdNNHWxssJcFeY2An-972" value="" style="ellipse;whiteSpace=wrap;html=1;aspect=fixed;fillColor=#f5f5f5;fontColor=#333333;fontStyle=4;shadow=0;rounded=1;rotation=90;sketch=0;" vertex="1" parent="1">
          <mxGeometry x="870.0590551265416" y="392.1651830628415" width="23.622" height="23.62" as="geometry" />
        </mxCell>
        <mxCell id="kPeBdNNHWxssJcFeY2An-973" style="edgeStyle=none;rounded=0;orthogonalLoop=1;jettySize=auto;html=1;exitX=1;exitY=0.5;exitDx=0;exitDy=0;entryX=0;entryY=0.5;entryDx=0;entryDy=0;fontSize=34;endArrow=classicThin;endFill=1;sketch=0;" edge="1" parent="1" source="kPeBdNNHWxssJcFeY2An-949" target="kPeBdNNHWxssJcFeY2An-972">
          <mxGeometry x="813.4530889033099" y="64.25000000000011" as="geometry" />
        </mxCell>
        <mxCell id="kPeBdNNHWxssJcFeY2An-974" style="edgeStyle=none;rounded=0;orthogonalLoop=1;jettySize=auto;html=1;exitX=1;exitY=0.5;exitDx=0;exitDy=0;entryX=0;entryY=0.5;entryDx=0;entryDy=0;fontSize=34;endArrow=classicThin;endFill=1;sketch=0;" edge="1" parent="1" source="kPeBdNNHWxssJcFeY2An-954" target="kPeBdNNHWxssJcFeY2An-972">
          <mxGeometry x="813.4530889033099" y="64.25000000000011" as="geometry" />
        </mxCell>
        <mxCell id="kPeBdNNHWxssJcFeY2An-975" value="" style="ellipse;whiteSpace=wrap;html=1;aspect=fixed;fillColor=#f5f5f5;fontColor=#333333;fontStyle=4;shadow=0;rounded=1;rotation=90;sketch=0;" vertex="1" parent="1">
          <mxGeometry x="830.6087389033098" y="392.1651830628415" width="23.622" height="23.62" as="geometry" />
        </mxCell>
        <mxCell id="kPeBdNNHWxssJcFeY2An-976" value="" style="ellipse;whiteSpace=wrap;html=1;aspect=fixed;fillColor=#f5f5f5;fontColor=#333333;fontStyle=4;shadow=0;rounded=1;rotation=90;sketch=0;" vertex="1" parent="1">
          <mxGeometry x="1106.7884516223235" y="392.1651830628415" width="23.622" height="23.62" as="geometry" />
        </mxCell>
        <mxCell id="kPeBdNNHWxssJcFeY2An-977" style="edgeStyle=none;rounded=0;orthogonalLoop=1;jettySize=auto;html=1;exitX=1;exitY=0.5;exitDx=0;exitDy=0;entryX=0;entryY=0.5;entryDx=0;entryDy=0;fontSize=34;endArrow=classicThin;endFill=1;sketch=0;" edge="1" parent="1" source="kPeBdNNHWxssJcFeY2An-955" target="kPeBdNNHWxssJcFeY2An-976">
          <mxGeometry x="813.4530889033099" y="64.25000000000011" as="geometry" />
        </mxCell>
        <mxCell id="kPeBdNNHWxssJcFeY2An-978" style="edgeStyle=none;rounded=0;orthogonalLoop=1;jettySize=auto;html=1;exitX=1;exitY=0.5;exitDx=0;exitDy=0;entryX=0;entryY=0.5;entryDx=0;entryDy=0;fontSize=34;endArrow=classicThin;endFill=1;sketch=0;" edge="1" parent="1" source="kPeBdNNHWxssJcFeY2An-956" target="kPeBdNNHWxssJcFeY2An-976">
          <mxGeometry x="813.4530889033099" y="64.25000000000011" as="geometry" />
        </mxCell>
        <mxCell id="kPeBdNNHWxssJcFeY2An-979" style="edgeStyle=none;rounded=0;orthogonalLoop=1;jettySize=auto;html=1;exitX=1;exitY=0.5;exitDx=0;exitDy=0;entryX=0;entryY=0.5;entryDx=0;entryDy=0;fontSize=34;endArrow=classicThin;endFill=1;sketch=0;" edge="1" parent="1" source="kPeBdNNHWxssJcFeY2An-957" target="kPeBdNNHWxssJcFeY2An-976">
          <mxGeometry x="813.4530889033099" y="64.25000000000011" as="geometry" />
        </mxCell>
        <mxCell id="kPeBdNNHWxssJcFeY2An-980" value="" style="ellipse;whiteSpace=wrap;html=1;aspect=fixed;fillColor=#f5f5f5;fontColor=#333333;fontStyle=4;shadow=0;rounded=1;rotation=90;sketch=0;" vertex="1" parent="1">
          <mxGeometry x="1067.3335522063599" y="392.1651830628415" width="23.622" height="23.62" as="geometry" />
        </mxCell>
        <mxCell id="kPeBdNNHWxssJcFeY2An-981" value="" style="ellipse;whiteSpace=wrap;html=1;aspect=fixed;fillColor=#f5f5f5;fontColor=#333333;fontStyle=4;shadow=0;rounded=1;rotation=90;sketch=0;" vertex="1" parent="1">
          <mxGeometry x="1146.243351038287" y="392.1651830628415" width="23.622" height="23.62" as="geometry" />
        </mxCell>
        <mxCell id="kPeBdNNHWxssJcFeY2An-982" value="" style="ellipse;whiteSpace=wrap;html=1;aspect=fixed;fillColor=#f5f5f5;fontColor=#333333;fontStyle=4;shadow=0;rounded=1;rotation=90;sketch=0;" vertex="1" parent="1">
          <mxGeometry x="1185.698250454251" y="392.1651830628415" width="23.622" height="23.62" as="geometry" />
        </mxCell>
        <mxCell id="kPeBdNNHWxssJcFeY2An-983" style="edgeStyle=none;rounded=0;orthogonalLoop=1;jettySize=auto;html=1;exitX=1;exitY=0.5;exitDx=0;exitDy=0;entryX=0;entryY=0.5;entryDx=0;entryDy=0;fontSize=34;endArrow=classicThin;endFill=1;sketch=0;" edge="1" parent="1" source="kPeBdNNHWxssJcFeY2An-958" target="kPeBdNNHWxssJcFeY2An-982">
          <mxGeometry x="813.4530889033099" y="64.25000000000011" as="geometry" />
        </mxCell>
        <mxCell id="kPeBdNNHWxssJcFeY2An-984" style="edgeStyle=none;rounded=0;orthogonalLoop=1;jettySize=auto;html=1;exitX=1;exitY=0.5;exitDx=0;exitDy=0;entryX=0;entryY=0.5;entryDx=0;entryDy=0;fontSize=34;endArrow=classicThin;endFill=1;sketch=0;" edge="1" parent="1" source="kPeBdNNHWxssJcFeY2An-959" target="kPeBdNNHWxssJcFeY2An-982">
          <mxGeometry x="813.4530889033099" y="64.25000000000011" as="geometry" />
        </mxCell>
        <mxCell id="kPeBdNNHWxssJcFeY2An-985" value="" style="ellipse;whiteSpace=wrap;html=1;aspect=fixed;fillColor=#f5f5f5;fontColor=#333333;fontStyle=4;shadow=0;rounded=1;rotation=90;sketch=0;" vertex="1" parent="1">
          <mxGeometry x="1225.1531498702145" y="392.1651830628415" width="23.622" height="23.62" as="geometry" />
        </mxCell>
        <mxCell id="kPeBdNNHWxssJcFeY2An-986" value="" style="ellipse;whiteSpace=wrap;html=1;aspect=fixed;fillColor=#f5f5f5;fontColor=#333333;fontStyle=4;shadow=0;rounded=1;rotation=90;sketch=0;" vertex="1" parent="1">
          <mxGeometry x="1264.6080492861781" y="392.1651830628415" width="23.622" height="23.62" as="geometry" />
        </mxCell>
        <mxCell id="kPeBdNNHWxssJcFeY2An-987" style="edgeStyle=none;rounded=0;orthogonalLoop=1;jettySize=auto;html=1;exitX=1;exitY=0.5;exitDx=0;exitDy=0;entryX=0;entryY=0.5;entryDx=0;entryDy=0;fontSize=34;endArrow=classicThin;endFill=1;sketch=0;" edge="1" parent="1" source="kPeBdNNHWxssJcFeY2An-960" target="kPeBdNNHWxssJcFeY2An-986">
          <mxGeometry x="813.4530889033099" y="64.25000000000011" as="geometry" />
        </mxCell>
        <mxCell id="kPeBdNNHWxssJcFeY2An-988" style="edgeStyle=none;rounded=0;orthogonalLoop=1;jettySize=auto;html=1;exitX=1;exitY=0.5;exitDx=0;exitDy=0;entryX=0;entryY=0.5;entryDx=0;entryDy=0;fontSize=34;endArrow=classicThin;endFill=1;sketch=0;" edge="1" parent="1" source="kPeBdNNHWxssJcFeY2An-961" target="kPeBdNNHWxssJcFeY2An-986">
          <mxGeometry x="813.4530889033099" y="64.25000000000011" as="geometry" />
        </mxCell>
        <mxCell id="kPeBdNNHWxssJcFeY2An-989" value="" style="ellipse;whiteSpace=wrap;html=1;aspect=fixed;fillColor=#f5f5f5;fontColor=#333333;fontStyle=4;shadow=0;rounded=1;rotation=90;sketch=0;" vertex="1" parent="1">
          <mxGeometry x="1304.0629487021415" y="392.1651830628415" width="23.622" height="23.62" as="geometry" />
        </mxCell>
        <mxCell id="kPeBdNNHWxssJcFeY2An-990" value="" style="ellipse;whiteSpace=wrap;html=1;aspect=fixed;fillColor=#f5f5f5;fontColor=#333333;fontStyle=4;shadow=0;rounded=1;rotation=90;sketch=0;" vertex="1" parent="1">
          <mxGeometry x="1343.5178481181056" y="392.1651830628415" width="23.622" height="23.62" as="geometry" />
        </mxCell>
        <mxCell id="kPeBdNNHWxssJcFeY2An-991" style="edgeStyle=none;rounded=0;orthogonalLoop=1;jettySize=auto;html=1;exitX=1;exitY=0.5;exitDx=0;exitDy=0;entryX=0;entryY=0.5;entryDx=0;entryDy=0;fontSize=34;endArrow=classicThin;endFill=1;sketch=0;" edge="1" parent="1" source="kPeBdNNHWxssJcFeY2An-962" target="kPeBdNNHWxssJcFeY2An-990">
          <mxGeometry x="813.4530889033099" y="64.25000000000011" as="geometry" />
        </mxCell>
        <mxCell id="kPeBdNNHWxssJcFeY2An-992" style="edgeStyle=none;rounded=0;orthogonalLoop=1;jettySize=auto;html=1;exitX=1;exitY=0.5;exitDx=0;exitDy=0;fontSize=34;endArrow=classicThin;endFill=1;entryX=0;entryY=0.5;entryDx=0;entryDy=0;sketch=0;" edge="1" parent="1" source="kPeBdNNHWxssJcFeY2An-963" target="kPeBdNNHWxssJcFeY2An-990">
          <mxGeometry x="813.4530889033099" y="64.25000000000011" as="geometry">
            <mxPoint x="1375.8087389033099" y="385.4726830628415" as="targetPoint" />
          </mxGeometry>
        </mxCell>
        <mxCell id="kPeBdNNHWxssJcFeY2An-993" value="" style="ellipse;whiteSpace=wrap;html=1;aspect=fixed;fillColor=#f5f5f5;fontColor=#333333;fontStyle=4;shadow=0;rounded=1;rotation=90;sketch=0;" vertex="1" parent="1">
          <mxGeometry x="1382.9727475340687" y="392.1651830628415" width="23.622" height="23.62" as="geometry" />
        </mxCell>
        <mxCell id="kPeBdNNHWxssJcFeY2An-994" value="" style="ellipse;whiteSpace=wrap;html=1;aspect=fixed;fillColor=#f5f5f5;fontColor=#333333;fontStyle=4;shadow=0;rounded=1;rotation=90;sketch=0;" vertex="1" parent="1">
          <mxGeometry x="1027.653235983128" y="441.3776830628415" width="23.622" height="23.62" as="geometry" />
        </mxCell>
        <mxCell id="kPeBdNNHWxssJcFeY2An-995" value="" style="ellipse;whiteSpace=wrap;html=1;aspect=fixed;fillColor=#f5f5f5;fontColor=#333333;fontStyle=4;shadow=0;rounded=1;rotation=90;sketch=0;" vertex="1" parent="1">
          <mxGeometry x="988.1983365671645" y="441.3776830628415" width="23.622" height="23.62" as="geometry" />
        </mxCell>
        <mxCell id="kPeBdNNHWxssJcFeY2An-996" value="" style="ellipse;whiteSpace=wrap;html=1;aspect=fixed;fillColor=#f5f5f5;fontColor=#333333;fontStyle=4;shadow=0;rounded=1;rotation=90;sketch=0;" vertex="1" parent="1">
          <mxGeometry x="948.7434371512009" y="441.3776830628415" width="23.622" height="23.62" as="geometry" />
        </mxCell>
        <mxCell id="kPeBdNNHWxssJcFeY2An-997" style="edgeStyle=none;rounded=0;orthogonalLoop=1;jettySize=auto;html=1;exitX=1;exitY=0.5;exitDx=0;exitDy=0;entryX=0;entryY=0.5;entryDx=0;entryDy=0;fontSize=34;endArrow=classicThin;endFill=1;sketch=0;" edge="1" parent="1" source="kPeBdNNHWxssJcFeY2An-968" target="kPeBdNNHWxssJcFeY2An-996">
          <mxGeometry x="813.4530889033099" y="64.25000000000011" as="geometry" />
        </mxCell>
        <mxCell id="kPeBdNNHWxssJcFeY2An-998" style="edgeStyle=none;rounded=0;orthogonalLoop=1;jettySize=auto;html=1;exitX=1;exitY=0.5;exitDx=0;exitDy=0;entryX=0;entryY=0.5;entryDx=0;entryDy=0;fontSize=34;endArrow=classicThin;endFill=1;sketch=0;" edge="1" parent="1" source="kPeBdNNHWxssJcFeY2An-972" target="kPeBdNNHWxssJcFeY2An-996">
          <mxGeometry x="813.4530889033099" y="64.25000000000011" as="geometry" />
        </mxCell>
        <mxCell id="kPeBdNNHWxssJcFeY2An-999" value="" style="ellipse;whiteSpace=wrap;html=1;aspect=fixed;fillColor=#f5f5f5;fontColor=#333333;fontStyle=4;shadow=0;rounded=1;rotation=90;sketch=0;" vertex="1" parent="1">
          <mxGeometry x="909.2885377352372" y="441.3776830628415" width="23.622" height="23.62" as="geometry" />
        </mxCell>
        <mxCell id="kPeBdNNHWxssJcFeY2An-1000" value="" style="ellipse;whiteSpace=wrap;html=1;aspect=fixed;fillColor=#f5f5f5;fontColor=#333333;fontStyle=4;shadow=0;rounded=1;rotation=90;sketch=0;" vertex="1" parent="1">
          <mxGeometry x="869.8336383192736" y="441.3776830628415" width="23.622" height="23.62" as="geometry" />
        </mxCell>
        <mxCell id="kPeBdNNHWxssJcFeY2An-1001" value="" style="ellipse;whiteSpace=wrap;html=1;aspect=fixed;fillColor=#f5f5f5;fontColor=#333333;fontStyle=4;shadow=0;rounded=1;rotation=90;sketch=0;" vertex="1" parent="1">
          <mxGeometry x="830.6087389033098" y="441.3776830628415" width="23.622" height="23.62" as="geometry" />
        </mxCell>
        <mxCell id="kPeBdNNHWxssJcFeY2An-1002" value="" style="ellipse;whiteSpace=wrap;html=1;aspect=fixed;fillColor=#f5f5f5;fontColor=#333333;fontStyle=4;shadow=0;rounded=1;rotation=90;sketch=0;" vertex="1" parent="1">
          <mxGeometry x="1106.5630348150555" y="441.3776830628415" width="23.622" height="23.62" as="geometry" />
        </mxCell>
        <mxCell id="kPeBdNNHWxssJcFeY2An-1003" style="edgeStyle=none;rounded=0;orthogonalLoop=1;jettySize=auto;html=1;exitX=1;exitY=0.5;exitDx=0;exitDy=0;entryX=0;entryY=0.5;entryDx=0;entryDy=0;fontSize=34;endArrow=classicThin;endFill=1;sketch=0;" edge="1" parent="1" source="kPeBdNNHWxssJcFeY2An-964" target="kPeBdNNHWxssJcFeY2An-1002">
          <mxGeometry x="813.4530889033099" y="64.25000000000011" as="geometry" />
        </mxCell>
        <mxCell id="kPeBdNNHWxssJcFeY2An-1004" style="edgeStyle=none;rounded=0;orthogonalLoop=1;jettySize=auto;html=1;exitX=1;exitY=0.5;exitDx=0;exitDy=0;entryX=0;entryY=0.5;entryDx=0;entryDy=0;fontSize=34;endArrow=classicThin;endFill=1;sketch=0;" edge="1" parent="1" source="kPeBdNNHWxssJcFeY2An-976" target="kPeBdNNHWxssJcFeY2An-1002">
          <mxGeometry x="813.4530889033099" y="64.25000000000011" as="geometry" />
        </mxCell>
        <mxCell id="kPeBdNNHWxssJcFeY2An-1005" style="edgeStyle=none;rounded=0;orthogonalLoop=1;jettySize=auto;html=1;exitX=1;exitY=0.5;exitDx=0;exitDy=0;entryX=0;entryY=0.5;entryDx=0;entryDy=0;fontSize=34;endArrow=classicThin;endFill=1;sketch=0;" edge="1" parent="1" source="kPeBdNNHWxssJcFeY2An-982" target="kPeBdNNHWxssJcFeY2An-1002">
          <mxGeometry x="813.4530889033099" y="64.25000000000011" as="geometry" />
        </mxCell>
        <mxCell id="kPeBdNNHWxssJcFeY2An-1006" value="" style="ellipse;whiteSpace=wrap;html=1;aspect=fixed;fillColor=#f5f5f5;fontColor=#333333;fontStyle=4;shadow=0;rounded=1;rotation=90;sketch=0;" vertex="1" parent="1">
          <mxGeometry x="1067.108135399092" y="441.3776830628415" width="23.622" height="23.62" as="geometry" />
        </mxCell>
        <mxCell id="kPeBdNNHWxssJcFeY2An-1007" value="" style="ellipse;whiteSpace=wrap;html=1;aspect=fixed;fillColor=#f5f5f5;fontColor=#333333;fontStyle=4;shadow=0;rounded=1;rotation=90;sketch=0;" vertex="1" parent="1">
          <mxGeometry x="1146.0179342310191" y="441.3776830628415" width="23.622" height="23.62" as="geometry" />
        </mxCell>
        <mxCell id="kPeBdNNHWxssJcFeY2An-1008" value="" style="ellipse;whiteSpace=wrap;html=1;aspect=fixed;fillColor=#f5f5f5;fontColor=#333333;fontStyle=4;shadow=0;rounded=1;rotation=90;sketch=0;" vertex="1" parent="1">
          <mxGeometry x="1185.472833646983" y="441.3776830628415" width="23.622" height="23.62" as="geometry" />
        </mxCell>
        <mxCell id="kPeBdNNHWxssJcFeY2An-1009" value="" style="ellipse;whiteSpace=wrap;html=1;aspect=fixed;fillColor=#f5f5f5;fontColor=#333333;fontStyle=4;shadow=0;rounded=1;rotation=90;sketch=0;" vertex="1" parent="1">
          <mxGeometry x="1224.9277330629466" y="441.3776830628415" width="23.622" height="23.62" as="geometry" />
        </mxCell>
        <mxCell id="kPeBdNNHWxssJcFeY2An-1010" value="" style="ellipse;whiteSpace=wrap;html=1;aspect=fixed;fillColor=#f5f5f5;fontColor=#333333;fontStyle=4;shadow=0;rounded=1;rotation=90;sketch=0;" vertex="1" parent="1">
          <mxGeometry x="1264.3826324789102" y="441.3776830628415" width="23.622" height="23.62" as="geometry" />
        </mxCell>
        <mxCell id="kPeBdNNHWxssJcFeY2An-1011" style="edgeStyle=none;rounded=0;orthogonalLoop=1;jettySize=auto;html=1;exitX=1;exitY=0.5;exitDx=0;exitDy=0;entryX=0;entryY=0.5;entryDx=0;entryDy=0;fontSize=34;endArrow=classicThin;endFill=1;sketch=0;" edge="1" parent="1" source="kPeBdNNHWxssJcFeY2An-986" target="kPeBdNNHWxssJcFeY2An-1010">
          <mxGeometry x="813.4530889033099" y="64.25000000000011" as="geometry" />
        </mxCell>
        <mxCell id="kPeBdNNHWxssJcFeY2An-1012" style="edgeStyle=none;rounded=0;orthogonalLoop=1;jettySize=auto;html=1;exitX=1;exitY=0.5;exitDx=0;exitDy=0;entryX=0;entryY=0.5;entryDx=0;entryDy=0;fontSize=34;endArrow=classicThin;endFill=1;sketch=0;" edge="1" parent="1" source="kPeBdNNHWxssJcFeY2An-990" target="kPeBdNNHWxssJcFeY2An-1010">
          <mxGeometry x="813.4530889033099" y="64.25000000000011" as="geometry" />
        </mxCell>
        <mxCell id="kPeBdNNHWxssJcFeY2An-1013" value="" style="ellipse;whiteSpace=wrap;html=1;aspect=fixed;fillColor=#f5f5f5;fontColor=#333333;fontStyle=4;shadow=0;rounded=1;rotation=90;sketch=0;" vertex="1" parent="1">
          <mxGeometry x="1303.8375318948738" y="441.3776830628415" width="23.622" height="23.62" as="geometry" />
        </mxCell>
        <mxCell id="kPeBdNNHWxssJcFeY2An-1014" value="" style="ellipse;whiteSpace=wrap;html=1;aspect=fixed;fillColor=#f5f5f5;fontColor=#333333;fontStyle=4;shadow=0;rounded=1;rotation=90;sketch=0;" vertex="1" parent="1">
          <mxGeometry x="1343.2924313108374" y="441.3776830628415" width="23.622" height="23.62" as="geometry" />
        </mxCell>
        <mxCell id="kPeBdNNHWxssJcFeY2An-1015" value="" style="ellipse;whiteSpace=wrap;html=1;aspect=fixed;fillColor=#f5f5f5;fontColor=#333333;fontStyle=4;shadow=0;rounded=1;rotation=90;sketch=0;" vertex="1" parent="1">
          <mxGeometry x="1382.747330726801" y="441.3776830628415" width="23.622" height="23.62" as="geometry" />
        </mxCell>
        <mxCell id="kPeBdNNHWxssJcFeY2An-1016" value="" style="ellipse;whiteSpace=wrap;html=1;aspect=fixed;fillColor=#f5f5f5;fontColor=#333333;fontStyle=4;shadow=0;rounded=1;rotation=90;sketch=0;" vertex="1" parent="1">
          <mxGeometry x="1027.8832359831279" y="490.59018306284156" width="23.622" height="23.62" as="geometry" />
        </mxCell>
        <mxCell id="kPeBdNNHWxssJcFeY2An-1017" value="" style="ellipse;whiteSpace=wrap;html=1;aspect=fixed;fillColor=#f5f5f5;fontColor=#333333;fontStyle=4;shadow=0;rounded=1;rotation=90;sketch=0;" vertex="1" parent="1">
          <mxGeometry x="988.4283365671643" y="490.59018306284156" width="23.622" height="23.62" as="geometry" />
        </mxCell>
        <mxCell id="kPeBdNNHWxssJcFeY2An-1018" value="" style="ellipse;whiteSpace=wrap;html=1;aspect=fixed;fillColor=#f5f5f5;fontColor=#333333;fontStyle=4;shadow=0;rounded=1;rotation=90;sketch=0;" vertex="1" parent="1">
          <mxGeometry x="948.9734371512006" y="490.59018306284156" width="23.622" height="23.62" as="geometry" />
        </mxCell>
        <mxCell id="kPeBdNNHWxssJcFeY2An-1019" value="" style="ellipse;whiteSpace=wrap;html=1;aspect=fixed;fillColor=#f5f5f5;fontColor=#333333;fontStyle=4;shadow=0;rounded=1;rotation=90;sketch=0;" vertex="1" parent="1">
          <mxGeometry x="909.518537735237" y="490.59018306284156" width="23.622" height="23.62" as="geometry" />
        </mxCell>
        <mxCell id="kPeBdNNHWxssJcFeY2An-1020" value="" style="ellipse;whiteSpace=wrap;html=1;aspect=fixed;fillColor=#f5f5f5;fontColor=#333333;fontStyle=4;shadow=0;rounded=1;rotation=90;sketch=0;" vertex="1" parent="1">
          <mxGeometry x="870.0636383192734" y="490.59018306284156" width="23.622" height="23.62" as="geometry" />
        </mxCell>
        <mxCell id="kPeBdNNHWxssJcFeY2An-1021" value="" style="ellipse;whiteSpace=wrap;html=1;aspect=fixed;fillColor=#f5f5f5;fontColor=#333333;fontStyle=4;shadow=0;rounded=1;rotation=90;sketch=0;" vertex="1" parent="1">
          <mxGeometry x="830.6087389033098" y="490.59018306284156" width="23.622" height="23.62" as="geometry" />
        </mxCell>
        <mxCell id="kPeBdNNHWxssJcFeY2An-1022" value="" style="ellipse;whiteSpace=wrap;html=1;aspect=fixed;fillColor=#f5f5f5;fontColor=#333333;fontStyle=4;shadow=0;rounded=1;rotation=90;sketch=0;" vertex="1" parent="1">
          <mxGeometry x="1106.7930348150553" y="490.59018306284156" width="23.622" height="23.62" as="geometry" />
        </mxCell>
        <mxCell id="kPeBdNNHWxssJcFeY2An-1023" style="edgeStyle=none;rounded=0;orthogonalLoop=1;jettySize=auto;html=1;exitX=1;exitY=0.5;exitDx=0;exitDy=0;entryX=0;entryY=0.5;entryDx=0;entryDy=0;fontSize=34;endArrow=classicThin;endFill=1;sketch=0;" edge="1" parent="1" source="kPeBdNNHWxssJcFeY2An-996" target="kPeBdNNHWxssJcFeY2An-1022">
          <mxGeometry x="813.4530889033099" y="64.25000000000011" as="geometry" />
        </mxCell>
        <mxCell id="kPeBdNNHWxssJcFeY2An-1024" style="edgeStyle=none;rounded=0;orthogonalLoop=1;jettySize=auto;html=1;exitX=1;exitY=0.5;exitDx=0;exitDy=0;entryX=0;entryY=0.5;entryDx=0;entryDy=0;fontSize=34;endArrow=classicThin;endFill=1;sketch=0;" edge="1" parent="1" source="kPeBdNNHWxssJcFeY2An-1002" target="kPeBdNNHWxssJcFeY2An-1022">
          <mxGeometry x="813.4530889033099" y="64.25000000000011" as="geometry" />
        </mxCell>
        <mxCell id="kPeBdNNHWxssJcFeY2An-1025" style="edgeStyle=none;rounded=0;orthogonalLoop=1;jettySize=auto;html=1;exitX=1;exitY=0.5;exitDx=0;exitDy=0;entryX=0;entryY=0.5;entryDx=0;entryDy=0;fontSize=34;endArrow=classicThin;endFill=1;sketch=0;" edge="1" parent="1" source="kPeBdNNHWxssJcFeY2An-1010" target="kPeBdNNHWxssJcFeY2An-1022">
          <mxGeometry x="813.4530889033099" y="64.25000000000011" as="geometry" />
        </mxCell>
        <mxCell id="kPeBdNNHWxssJcFeY2An-1026" value="" style="ellipse;whiteSpace=wrap;html=1;aspect=fixed;fillColor=#f5f5f5;fontColor=#333333;fontStyle=4;shadow=0;rounded=1;rotation=90;sketch=0;" vertex="1" parent="1">
          <mxGeometry x="1067.3381353990917" y="490.59018306284156" width="23.622" height="23.62" as="geometry" />
        </mxCell>
        <mxCell id="kPeBdNNHWxssJcFeY2An-1027" value="" style="ellipse;whiteSpace=wrap;html=1;aspect=fixed;fillColor=#f5f5f5;fontColor=#333333;fontStyle=4;shadow=0;rounded=1;rotation=90;sketch=0;" vertex="1" parent="1">
          <mxGeometry x="1146.247934231019" y="490.59018306284156" width="23.622" height="23.62" as="geometry" />
        </mxCell>
        <mxCell id="kPeBdNNHWxssJcFeY2An-1028" value="" style="ellipse;whiteSpace=wrap;html=1;aspect=fixed;fillColor=#f5f5f5;fontColor=#333333;fontStyle=4;shadow=0;rounded=1;rotation=90;sketch=0;" vertex="1" parent="1">
          <mxGeometry x="1185.7028336469828" y="490.59018306284156" width="23.622" height="23.62" as="geometry" />
        </mxCell>
        <mxCell id="kPeBdNNHWxssJcFeY2An-1029" value="" style="ellipse;whiteSpace=wrap;html=1;aspect=fixed;fillColor=#f5f5f5;fontColor=#333333;fontStyle=4;shadow=0;rounded=1;rotation=90;sketch=0;" vertex="1" parent="1">
          <mxGeometry x="1225.1577330629464" y="490.59018306284156" width="23.622" height="23.62" as="geometry" />
        </mxCell>
        <mxCell id="kPeBdNNHWxssJcFeY2An-1030" value="" style="ellipse;whiteSpace=wrap;html=1;aspect=fixed;fillColor=#f5f5f5;fontColor=#333333;fontStyle=4;shadow=0;rounded=1;rotation=90;sketch=0;" vertex="1" parent="1">
          <mxGeometry x="1264.61263247891" y="490.59018306284156" width="23.622" height="23.62" as="geometry" />
        </mxCell>
        <mxCell id="kPeBdNNHWxssJcFeY2An-1031" value="" style="ellipse;whiteSpace=wrap;html=1;aspect=fixed;fillColor=#f5f5f5;fontColor=#333333;fontStyle=4;shadow=0;rounded=1;rotation=90;sketch=0;" vertex="1" parent="1">
          <mxGeometry x="1304.0675318948738" y="490.59018306284156" width="23.622" height="23.62" as="geometry" />
        </mxCell>
        <mxCell id="kPeBdNNHWxssJcFeY2An-1032" value="" style="ellipse;whiteSpace=wrap;html=1;aspect=fixed;fillColor=#f5f5f5;fontColor=#333333;fontStyle=4;shadow=0;rounded=1;rotation=90;sketch=0;" vertex="1" parent="1">
          <mxGeometry x="1343.5224313108374" y="490.59018306284156" width="23.622" height="23.62" as="geometry" />
        </mxCell>
        <mxCell id="kPeBdNNHWxssJcFeY2An-1033" value="" style="ellipse;whiteSpace=wrap;html=1;aspect=fixed;fillColor=#f5f5f5;fontColor=#333333;fontStyle=4;shadow=0;rounded=1;rotation=90;sketch=0;" vertex="1" parent="1">
          <mxGeometry x="1382.977330726801" y="490.59018306284156" width="23.622" height="23.62" as="geometry" />
        </mxCell>
        <mxCell id="kPeBdNNHWxssJcFeY2An-1034" value="" style="ellipse;whiteSpace=wrap;html=1;aspect=fixed;fillColor=#f5f5f5;fontColor=#333333;fontStyle=4;shadow=0;rounded=1;rotation=90;sketch=0;" vertex="1" parent="1">
          <mxGeometry x="1027.883352790396" y="539.8026830628415" width="23.622" height="23.62" as="geometry" />
        </mxCell>
        <mxCell id="kPeBdNNHWxssJcFeY2An-1035" value="" style="ellipse;whiteSpace=wrap;html=1;aspect=fixed;fillColor=#f5f5f5;fontColor=#333333;fontStyle=4;shadow=0;rounded=1;rotation=90;sketch=0;" vertex="1" parent="1">
          <mxGeometry x="988.4284533744324" y="539.8026830628415" width="23.622" height="23.62" as="geometry" />
        </mxCell>
        <mxCell id="kPeBdNNHWxssJcFeY2An-1036" value="" style="ellipse;whiteSpace=wrap;html=1;aspect=fixed;fillColor=#f5f5f5;fontColor=#333333;fontStyle=4;shadow=0;rounded=1;rotation=90;sketch=0;" vertex="1" parent="1">
          <mxGeometry x="948.9735539584688" y="539.8026830628415" width="23.622" height="23.62" as="geometry" />
        </mxCell>
        <mxCell id="kPeBdNNHWxssJcFeY2An-1037" value="" style="ellipse;whiteSpace=wrap;html=1;aspect=fixed;fillColor=#f5f5f5;fontColor=#333333;fontStyle=4;shadow=0;rounded=1;rotation=90;sketch=0;" vertex="1" parent="1">
          <mxGeometry x="909.5186545425051" y="539.8026830628415" width="23.622" height="23.62" as="geometry" />
        </mxCell>
        <mxCell id="kPeBdNNHWxssJcFeY2An-1038" value="" style="ellipse;whiteSpace=wrap;html=1;aspect=fixed;fillColor=#f5f5f5;fontColor=#333333;fontStyle=4;shadow=0;rounded=1;rotation=90;sketch=0;" vertex="1" parent="1">
          <mxGeometry x="870.0637551265415" y="539.8026830628415" width="23.622" height="23.62" as="geometry" />
        </mxCell>
        <mxCell id="kPeBdNNHWxssJcFeY2An-1039" value="" style="ellipse;whiteSpace=wrap;html=1;aspect=fixed;fillColor=#f5f5f5;fontColor=#333333;fontStyle=4;shadow=0;rounded=1;rotation=90;sketch=0;" vertex="1" parent="1">
          <mxGeometry x="830.6088557105779" y="539.8026830628415" width="23.622" height="23.62" as="geometry" />
        </mxCell>
        <mxCell id="kPeBdNNHWxssJcFeY2An-1040" value="" style="ellipse;whiteSpace=wrap;html=1;aspect=fixed;fillColor=#f5f5f5;fontColor=#333333;fontStyle=4;shadow=0;rounded=1;rotation=90;sketch=0;" vertex="1" parent="1">
          <mxGeometry x="1106.7931516223234" y="539.8026830628415" width="23.622" height="23.62" as="geometry" />
        </mxCell>
        <mxCell id="kPeBdNNHWxssJcFeY2An-1041" style="edgeStyle=none;rounded=0;orthogonalLoop=1;jettySize=auto;html=1;exitX=1;exitY=0.5;exitDx=0;exitDy=0;entryX=0;entryY=0.5;entryDx=0;entryDy=0;fontSize=34;endArrow=classicThin;endFill=1;strokeColor=#000000;sketch=0;" edge="1" parent="1" source="kPeBdNNHWxssJcFeY2An-1022" target="kPeBdNNHWxssJcFeY2An-1040">
          <mxGeometry x="813.4530889033099" y="64.25000000000011" as="geometry" />
        </mxCell>
        <mxCell id="kPeBdNNHWxssJcFeY2An-1042" value="" style="ellipse;whiteSpace=wrap;html=1;aspect=fixed;fillColor=#f5f5f5;fontColor=#333333;fontStyle=4;shadow=0;rounded=1;rotation=90;sketch=0;" vertex="1" parent="1">
          <mxGeometry x="1067.3382522063598" y="539.8026830628415" width="23.622" height="23.62" as="geometry" />
        </mxCell>
        <mxCell id="kPeBdNNHWxssJcFeY2An-1043" value="" style="ellipse;whiteSpace=wrap;html=1;aspect=fixed;fillColor=#f5f5f5;fontColor=#333333;fontStyle=4;shadow=0;rounded=1;rotation=90;sketch=0;" vertex="1" parent="1">
          <mxGeometry x="1146.248051038287" y="539.8026830628415" width="23.622" height="23.62" as="geometry" />
        </mxCell>
        <mxCell id="kPeBdNNHWxssJcFeY2An-1044" value="" style="ellipse;whiteSpace=wrap;html=1;aspect=fixed;fillColor=#f5f5f5;fontColor=#333333;fontStyle=4;shadow=0;rounded=1;rotation=90;sketch=0;" vertex="1" parent="1">
          <mxGeometry x="1185.7029504542509" y="539.8026830628415" width="23.622" height="23.62" as="geometry" />
        </mxCell>
        <mxCell id="kPeBdNNHWxssJcFeY2An-1045" value="" style="ellipse;whiteSpace=wrap;html=1;aspect=fixed;fillColor=#f5f5f5;fontColor=#333333;fontStyle=4;shadow=0;rounded=1;rotation=90;sketch=0;" vertex="1" parent="1">
          <mxGeometry x="1225.1578498702145" y="539.8026830628415" width="23.622" height="23.62" as="geometry" />
        </mxCell>
        <mxCell id="kPeBdNNHWxssJcFeY2An-1046" value="" style="ellipse;whiteSpace=wrap;html=1;aspect=fixed;fillColor=#f5f5f5;fontColor=#333333;fontStyle=4;shadow=0;rounded=1;rotation=90;sketch=0;" vertex="1" parent="1">
          <mxGeometry x="1264.612749286178" y="539.8026830628415" width="23.622" height="23.62" as="geometry" />
        </mxCell>
        <mxCell id="kPeBdNNHWxssJcFeY2An-1047" value="" style="ellipse;whiteSpace=wrap;html=1;aspect=fixed;fillColor=#f5f5f5;fontColor=#333333;fontStyle=4;shadow=0;rounded=1;rotation=90;sketch=0;" vertex="1" parent="1">
          <mxGeometry x="1304.067648702142" y="539.8026830628415" width="23.622" height="23.62" as="geometry" />
        </mxCell>
        <mxCell id="kPeBdNNHWxssJcFeY2An-1048" value="" style="ellipse;whiteSpace=wrap;html=1;aspect=fixed;fillColor=#f5f5f5;fontColor=#333333;fontStyle=4;shadow=0;rounded=1;rotation=90;sketch=0;" vertex="1" parent="1">
          <mxGeometry x="1343.5225481181055" y="539.8026830628415" width="23.622" height="23.62" as="geometry" />
        </mxCell>
        <mxCell id="kPeBdNNHWxssJcFeY2An-1049" value="" style="ellipse;whiteSpace=wrap;html=1;aspect=fixed;fillColor=#f5f5f5;fontColor=#333333;fontStyle=4;shadow=0;rounded=1;rotation=90;sketch=0;" vertex="1" parent="1">
          <mxGeometry x="1382.9774475340691" y="539.8026830628415" width="23.622" height="23.62" as="geometry" />
        </mxCell>
        <mxCell id="kPeBdNNHWxssJcFeY2An-1050" value="" style="verticalLabelPosition=bottom;verticalAlign=top;html=1;shape=mxgraph.basic.patternFillRect;fillStyle=hor;step=32.5;fillStrokeWidth=0.5;fillStrokeColor=#212121;rounded=1;fontSize=34;strokeWidth=1;strokeColor=none;fillColor=#FFD7EE;sketch=0;" vertex="1" parent="1">
          <mxGeometry x="909.3487389033098" y="170.47268306284147" width="23.622" height="130" as="geometry" />
        </mxCell>
        <mxCell id="kPeBdNNHWxssJcFeY2An-1051" value="" style="verticalLabelPosition=bottom;verticalAlign=top;html=1;shape=mxgraph.basic.patternFillRect;fillStyle=hor;step=32.5;fillStrokeWidth=0.5;fillStrokeColor=#212121;rounded=1;fontSize=34;strokeWidth=1;strokeColor=none;fillColor=#FFD7EE;sketch=0;" vertex="1" parent="1">
          <mxGeometry x="948.7187389033097" y="170.47268306284147" width="23.622" height="130" as="geometry" />
        </mxCell>
        <mxCell id="kPeBdNNHWxssJcFeY2An-1052" value="" style="verticalLabelPosition=bottom;verticalAlign=top;html=1;shape=mxgraph.basic.patternFillRect;fillStyle=hor;step=32.5;fillStrokeWidth=0.5;fillStrokeColor=#212121;rounded=1;fontSize=34;strokeWidth=1;strokeColor=none;fillColor=#FFD7EE;sketch=0;" vertex="1" parent="1">
          <mxGeometry x="988.0887389033098" y="170.47268306284147" width="23.622" height="130" as="geometry" />
        </mxCell>
        <mxCell id="kPeBdNNHWxssJcFeY2An-1053" value="" style="verticalLabelPosition=bottom;verticalAlign=top;html=1;shape=mxgraph.basic.patternFillRect;fillStyle=hor;step=32.5;fillStrokeWidth=0.5;fillStrokeColor=#212121;rounded=1;fontSize=34;strokeWidth=1;strokeColor=none;fillColor=#FFD7EE;sketch=0;" vertex="1" parent="1">
          <mxGeometry x="1027.4587389033097" y="170.47268306284147" width="23.622" height="130" as="geometry" />
        </mxCell>
        <mxCell id="kPeBdNNHWxssJcFeY2An-1054" value="" style="verticalLabelPosition=bottom;verticalAlign=top;html=1;shape=mxgraph.basic.patternFillRect;fillStyle=hor;step=32.5;fillStrokeWidth=0.5;fillStrokeColor=#212121;rounded=1;fontSize=34;strokeWidth=1;strokeColor=none;fillColor=#FFD7EE;sketch=0;" vertex="1" parent="1">
          <mxGeometry x="1066.8287389033098" y="170.47268306284147" width="23.622" height="130" as="geometry" />
        </mxCell>
        <mxCell id="kPeBdNNHWxssJcFeY2An-1055" value="" style="verticalLabelPosition=bottom;verticalAlign=top;html=1;shape=mxgraph.basic.patternFillRect;fillStyle=hor;step=32.5;fillStrokeWidth=0.5;fillStrokeColor=#212121;rounded=1;fontSize=34;strokeWidth=1;strokeColor=none;fillColor=#FFD7EE;sketch=0;" vertex="1" parent="1">
          <mxGeometry x="1106.1987389033097" y="170.47268306284147" width="23.622" height="130" as="geometry" />
        </mxCell>
        <mxCell id="kPeBdNNHWxssJcFeY2An-1056" value="" style="verticalLabelPosition=bottom;verticalAlign=top;html=1;shape=mxgraph.basic.patternFillRect;fillStyle=hor;step=32.5;fillStrokeWidth=0.5;fillStrokeColor=#212121;rounded=1;fontSize=34;strokeWidth=1;strokeColor=none;fillColor=#FFD7EE;sketch=0;" vertex="1" parent="1">
          <mxGeometry x="1145.5687389033096" y="170.47268306284147" width="23.622" height="130" as="geometry" />
        </mxCell>
        <mxCell id="kPeBdNNHWxssJcFeY2An-1057" value="" style="verticalLabelPosition=bottom;verticalAlign=top;html=1;shape=mxgraph.basic.patternFillRect;fillStyle=hor;step=32.5;fillStrokeWidth=0.5;fillStrokeColor=#212121;rounded=1;fontSize=34;strokeWidth=1;strokeColor=none;fillColor=#FFD7EE;sketch=0;" vertex="1" parent="1">
          <mxGeometry x="1184.9387389033097" y="170.47268306284147" width="23.622" height="130" as="geometry" />
        </mxCell>
        <mxCell id="kPeBdNNHWxssJcFeY2An-1058" value="" style="verticalLabelPosition=bottom;verticalAlign=top;html=1;shape=mxgraph.basic.patternFillRect;fillStyle=hor;step=32.5;fillStrokeWidth=0.5;fillStrokeColor=#212121;rounded=1;fontSize=34;strokeWidth=1;strokeColor=none;fillColor=#FFD7EE;sketch=0;" vertex="1" parent="1">
          <mxGeometry x="1224.3087389033096" y="170.47268306284147" width="23.622" height="130" as="geometry" />
        </mxCell>
        <mxCell id="kPeBdNNHWxssJcFeY2An-1059" value="" style="verticalLabelPosition=bottom;verticalAlign=top;html=1;shape=mxgraph.basic.patternFillRect;fillStyle=hor;step=32.5;fillStrokeWidth=0.5;fillStrokeColor=#212121;rounded=1;fontSize=34;strokeWidth=1;strokeColor=none;fillColor=#FFD7EE;sketch=0;" vertex="1" parent="1">
          <mxGeometry x="1263.6787389033097" y="170.47268306284147" width="23.622" height="130" as="geometry" />
        </mxCell>
        <mxCell id="kPeBdNNHWxssJcFeY2An-1060" value="" style="verticalLabelPosition=bottom;verticalAlign=top;html=1;shape=mxgraph.basic.patternFillRect;fillStyle=hor;step=32.5;fillStrokeWidth=0.5;fillStrokeColor=#212121;rounded=1;fontSize=34;strokeWidth=1;strokeColor=none;fillColor=#FFD7EE;sketch=0;" vertex="1" parent="1">
          <mxGeometry x="1303.0487389033096" y="170.47268306284147" width="23.622" height="130" as="geometry" />
        </mxCell>
        <mxCell id="kPeBdNNHWxssJcFeY2An-1061" value="" style="verticalLabelPosition=bottom;verticalAlign=top;html=1;shape=mxgraph.basic.patternFillRect;fillStyle=hor;step=32.5;fillStrokeWidth=0.5;fillStrokeColor=#212121;rounded=1;fontSize=34;strokeWidth=1;strokeColor=none;fillColor=#FFD7EE;sketch=0;" vertex="1" parent="1">
          <mxGeometry x="1342.41873890331" y="170.47268306284147" width="23.622" height="130" as="geometry" />
        </mxCell>
        <mxCell id="kPeBdNNHWxssJcFeY2An-1062" value="" style="verticalLabelPosition=bottom;verticalAlign=top;html=1;shape=mxgraph.basic.patternFillRect;fillStyle=hor;step=32.5;fillStrokeWidth=0.5;fillStrokeColor=#212121;rounded=1;fontSize=18;strokeWidth=1;strokeColor=none;fillColor=#FFD7EE;sketch=0;labelPosition=right;align=left;" vertex="1" parent="1">
          <mxGeometry x="1381.7887389033099" y="170.47268306284147" width="23.622" height="130" as="geometry" />
        </mxCell>
        <mxCell id="kPeBdNNHWxssJcFeY2An-1063" value="" style="endArrow=none;dashed=1;html=1;fontSize=34;strokeColor=#000000;entryX=0;entryY=1;entryDx=0;entryDy=0;entryPerimeter=0;exitX=0;exitY=0;exitDx=0;exitDy=0;exitPerimeter=0;strokeWidth=2;sketch=0;" edge="1" parent="1">
          <mxGeometry x="820.8082389033098" y="64.24818306284126" width="50" height="50" as="geometry">
            <mxPoint x="980.17673890331" y="64.2536338743173" as="sourcePoint" />
            <mxPoint x="980.17673890331" y="300.45546450273025" as="targetPoint" />
          </mxGeometry>
        </mxCell>
        <mxCell id="kPeBdNNHWxssJcFeY2An-1064" value="" style="endArrow=none;dashed=1;html=1;fontSize=34;strokeColor=#000000;entryX=0;entryY=1;entryDx=0;entryDy=0;entryPerimeter=0;exitX=0;exitY=0;exitDx=0;exitDy=0;exitPerimeter=0;strokeWidth=2;sketch=0;" edge="1" parent="1">
          <mxGeometry x="820.8082389033098" y="64.24818306284126" width="50" height="50" as="geometry">
            <mxPoint x="1097.9957389033098" y="64.25181693715881" as="sourcePoint" />
            <mxPoint x="1097.9957389033098" y="300.45364756557177" as="targetPoint" />
          </mxGeometry>
        </mxCell>
        <mxCell id="kPeBdNNHWxssJcFeY2An-1065" value="" style="endArrow=none;dashed=1;html=1;fontSize=34;strokeColor=#000000;entryX=0;entryY=1;entryDx=0;entryDy=0;entryPerimeter=0;exitX=0;exitY=0;exitDx=0;exitDy=0;exitPerimeter=0;strokeWidth=2;sketch=0;" edge="1" parent="1">
          <mxGeometry x="820.8082389033098" y="64.24818306284126" width="50" height="50" as="geometry">
            <mxPoint x="1137.45523890331" y="64.25090846857928" as="sourcePoint" />
            <mxPoint x="1137.45523890331" y="300.4527390969922" as="targetPoint" />
          </mxGeometry>
        </mxCell>
        <mxCell id="kPeBdNNHWxssJcFeY2An-1066" value="" style="endArrow=none;dashed=1;html=1;fontSize=34;strokeColor=#000000;entryX=0;entryY=1;entryDx=0;entryDy=0;entryPerimeter=0;exitX=0;exitY=0;exitDx=0;exitDy=0;exitPerimeter=0;strokeWidth=2;sketch=0;" edge="1" parent="1">
          <mxGeometry x="820.8082389033098" y="64.24818306284126" width="50" height="50" as="geometry">
            <mxPoint x="1255.4747389033096" y="64.25000000000011" as="sourcePoint" />
            <mxPoint x="1255.4747389033096" y="300.45183062841306" as="targetPoint" />
          </mxGeometry>
        </mxCell>
        <mxCell id="kPeBdNNHWxssJcFeY2An-1068" value="" style="endArrow=none;dashed=1;html=1;fontSize=34;strokeColor=#000000;entryX=0;entryY=1;entryDx=0;entryDy=0;entryPerimeter=0;exitX=0;exitY=0;exitDx=0;exitDy=0;exitPerimeter=0;strokeWidth=2;sketch=0;" edge="1" parent="1">
          <mxGeometry x="820.8082389033098" y="64.24818306284126" width="50" height="50" as="geometry">
            <mxPoint x="820.8082389033098" y="64.25454234289724" as="sourcePoint" />
            <mxPoint x="820.8082389033098" y="300.4563729713102" as="targetPoint" />
          </mxGeometry>
        </mxCell>
        <mxCell id="kPeBdNNHWxssJcFeY2An-543" value="" style="rounded=1;whiteSpace=wrap;html=1;dashed=1;dashPattern=1 1;fontSize=34;strokeColor=#000000;strokeWidth=1;opacity=70;fillColor=#eeffd7;sketch=0;" vertex="1" parent="1">
          <mxGeometry x="121.44565000000046" y="326.17268306284143" width="610" height="260" as="geometry" />
        </mxCell>
        <mxCell id="kPeBdNNHWxssJcFeY2An-1143" style="rounded=0;orthogonalLoop=1;jettySize=auto;html=1;exitX=1;exitY=0.5;exitDx=0;exitDy=0;exitPerimeter=0;entryX=0.5;entryY=0;entryDx=0;entryDy=0;fontSize=36;fontColor=#E6E6E6;endArrow=classicThin;endFill=1;startSize=10;endSize=10;strokeColor=#111314;strokeWidth=4;sketch=0;" edge="1" parent="1" target="kPeBdNNHWxssJcFeY2An-1232">
          <mxGeometry relative="1" as="geometry">
            <mxPoint x="426.37565000000023" y="675.0033330628413" as="sourcePoint" />
            <mxPoint x="426.4500000000003" y="733" as="targetPoint" />
          </mxGeometry>
        </mxCell>
        <mxCell id="kPeBdNNHWxssJcFeY2An-545" value="1 frame = 0.2 seconds" style="verticalLabelPosition=bottom;verticalAlign=top;html=1;shape=mxgraph.basic.patternFillRect;fillStyle=hor;step=5;fillStrokeWidth=0.5;fillStrokeColor=#212121;rounded=1;fontSize=18;strokeWidth=1;strokeColor=none;fillColor=#D7EEFF;sketch=0;labelPosition=left;align=right;spacing=0;spacingBottom=-4;" vertex="1" parent="1">
          <mxGeometry x="136.05565000000036" y="170.47268306284147" width="23.622" height="130" as="geometry" />
        </mxCell>
        <mxCell id="kPeBdNNHWxssJcFeY2An-546" value="" style="verticalLabelPosition=bottom;verticalAlign=top;html=1;shape=mxgraph.basic.patternFillRect;fillStyle=hor;step=5;fillStrokeWidth=0.5;fillStrokeColor=#212121;rounded=1;fontSize=34;strokeWidth=1;strokeColor=none;fillColor=#D7EEFF;sketch=0;" vertex="1" parent="1">
          <mxGeometry x="175.42565000000025" y="170.47268306284147" width="23.622" height="130" as="geometry" />
        </mxCell>
        <mxCell id="kPeBdNNHWxssJcFeY2An-547" value="" style="ellipse;whiteSpace=wrap;html=1;fillColor=#f5f5f5;fontColor=#333333;fontStyle=4;shadow=0;rounded=1;rotation=90;aspect=fixed;sketch=0;" vertex="1" parent="1">
          <mxGeometry x="136.05565000000036" y="343.4266934457097" width="23.622" height="23.62" as="geometry" />
        </mxCell>
        <mxCell id="kPeBdNNHWxssJcFeY2An-548" value="" style="ellipse;whiteSpace=wrap;html=1;aspect=fixed;fillColor=#f5f5f5;fontColor=#333333;fontStyle=4;shadow=0;rounded=1;rotation=90;sketch=0;" vertex="1" parent="1">
          <mxGeometry x="332.90565000000026" y="342.97669344570977" width="23.622" height="23.62" as="geometry" />
        </mxCell>
        <mxCell id="kPeBdNNHWxssJcFeY2An-549" value="" style="ellipse;whiteSpace=wrap;html=1;fillColor=#f5f5f5;fontColor=#333333;fontStyle=4;shadow=0;rounded=1;rotation=90;aspect=fixed;sketch=0;" vertex="1" parent="1">
          <mxGeometry x="293.5356500000004" y="342.97669344570977" width="23.622" height="23.62" as="geometry" />
        </mxCell>
        <mxCell id="kPeBdNNHWxssJcFeY2An-550" value="" style="ellipse;whiteSpace=wrap;html=1;fillColor=#f5f5f5;fontColor=#333333;fontStyle=4;shadow=0;rounded=1;rotation=90;aspect=fixed;sketch=0;" vertex="1" parent="1">
          <mxGeometry x="254.16565000000026" y="342.9526830628415" width="23.622" height="23.62" as="geometry" />
        </mxCell>
        <mxCell id="kPeBdNNHWxssJcFeY2An-551" value="" style="ellipse;whiteSpace=wrap;html=1;fillColor=#f5f5f5;fontColor=#333333;fontStyle=4;shadow=0;rounded=1;rotation=90;aspect=fixed;sketch=0;" vertex="1" parent="1">
          <mxGeometry x="214.79565000000036" y="342.9526830628415" width="23.622" height="23.62" as="geometry" />
        </mxCell>
        <mxCell id="kPeBdNNHWxssJcFeY2An-552" value="" style="ellipse;whiteSpace=wrap;html=1;fillColor=#f5f5f5;fontColor=#333333;fontStyle=4;shadow=0;rounded=1;rotation=90;aspect=fixed;sketch=0;" vertex="1" parent="1">
          <mxGeometry x="175.42565000000025" y="342.9526830628415" width="23.622" height="23.62" as="geometry" />
        </mxCell>
        <mxCell id="kPeBdNNHWxssJcFeY2An-553" value="" style="ellipse;whiteSpace=wrap;html=1;aspect=fixed;fillColor=#f5f5f5;fontColor=#333333;fontStyle=4;shadow=0;rounded=1;rotation=90;sketch=0;" vertex="1" parent="1">
          <mxGeometry x="411.6456500000003" y="342.97669344570977" width="23.622" height="23.62" as="geometry" />
        </mxCell>
        <mxCell id="kPeBdNNHWxssJcFeY2An-554" value="" style="ellipse;whiteSpace=wrap;html=1;aspect=fixed;fillColor=#f5f5f5;fontColor=#333333;fontStyle=4;shadow=0;rounded=1;rotation=90;sketch=0;" vertex="1" parent="1">
          <mxGeometry x="372.2756500000004" y="342.97669344570977" width="23.622" height="23.62" as="geometry" />
        </mxCell>
        <mxCell id="kPeBdNNHWxssJcFeY2An-555" value="" style="ellipse;whiteSpace=wrap;html=1;aspect=fixed;fillColor=#f5f5f5;fontColor=#333333;fontStyle=4;shadow=0;rounded=1;rotation=90;sketch=0;" vertex="1" parent="1">
          <mxGeometry x="451.0156500000004" y="342.97669344570977" width="23.622" height="23.62" as="geometry" />
        </mxCell>
        <mxCell id="kPeBdNNHWxssJcFeY2An-556" value="" style="ellipse;whiteSpace=wrap;html=1;aspect=fixed;fillColor=#f5f5f5;fontColor=#333333;fontStyle=4;shadow=0;rounded=1;rotation=90;sketch=0;" vertex="1" parent="1">
          <mxGeometry x="490.3856500000003" y="342.97669344570977" width="23.622" height="23.62" as="geometry" />
        </mxCell>
        <mxCell id="kPeBdNNHWxssJcFeY2An-557" value="" style="ellipse;whiteSpace=wrap;html=1;aspect=fixed;fillColor=#f5f5f5;fontColor=#333333;fontStyle=4;shadow=0;rounded=1;rotation=90;sketch=0;" vertex="1" parent="1">
          <mxGeometry x="529.7556500000004" y="342.97669344570977" width="23.622" height="23.62" as="geometry" />
        </mxCell>
        <mxCell id="kPeBdNNHWxssJcFeY2An-558" value="" style="ellipse;whiteSpace=wrap;html=1;aspect=fixed;fillColor=#f5f5f5;fontColor=#333333;fontStyle=4;shadow=0;rounded=1;rotation=90;sketch=0;" vertex="1" parent="1">
          <mxGeometry x="569.1256500000003" y="342.97669344570977" width="23.622" height="23.62" as="geometry" />
        </mxCell>
        <mxCell id="kPeBdNNHWxssJcFeY2An-559" value="" style="ellipse;whiteSpace=wrap;html=1;aspect=fixed;fillColor=#f5f5f5;fontColor=#333333;fontStyle=4;shadow=0;rounded=1;rotation=90;sketch=0;" vertex="1" parent="1">
          <mxGeometry x="608.4956500000004" y="342.97669344570977" width="23.622" height="23.62" as="geometry" />
        </mxCell>
        <mxCell id="kPeBdNNHWxssJcFeY2An-560" value="" style="ellipse;whiteSpace=wrap;html=1;aspect=fixed;fillColor=#f5f5f5;fontColor=#333333;fontStyle=4;shadow=0;rounded=1;rotation=90;sketch=0;" vertex="1" parent="1">
          <mxGeometry x="647.8656500000005" y="342.97669344570977" width="23.622" height="23.62" as="geometry" />
        </mxCell>
        <mxCell id="kPeBdNNHWxssJcFeY2An-561" value="" style="ellipse;whiteSpace=wrap;html=1;aspect=fixed;fillColor=#f5f5f5;fontColor=#333333;fontStyle=4;shadow=0;rounded=1;rotation=90;sketch=0;" vertex="1" parent="1">
          <mxGeometry x="687.2356500000004" y="342.97669344570977" width="23.622" height="23.62" as="geometry" />
        </mxCell>
        <mxCell id="kPeBdNNHWxssJcFeY2An-562" value="" style="ellipse;whiteSpace=wrap;html=1;aspect=fixed;fillColor=#f5f5f5;fontColor=#333333;fontStyle=4;shadow=0;rounded=1;rotation=90;sketch=0;" vertex="1" parent="1">
          <mxGeometry x="333.32556388708656" y="392.1651830628415" width="23.622" height="23.62" as="geometry" />
        </mxCell>
        <mxCell id="kPeBdNNHWxssJcFeY2An-563" style="edgeStyle=none;rounded=0;orthogonalLoop=1;jettySize=auto;html=1;exitX=1;exitY=0.5;exitDx=0;exitDy=0;entryX=0;entryY=0.5;entryDx=0;entryDy=0;fontSize=34;endArrow=classicThin;endFill=1;sketch=0;" edge="1" parent="1" source="kPeBdNNHWxssJcFeY2An-548" target="kPeBdNNHWxssJcFeY2An-562">
          <mxGeometry x="118.90000000000043" y="64.25000000000011" as="geometry" />
        </mxCell>
        <mxCell id="kPeBdNNHWxssJcFeY2An-564" style="edgeStyle=none;rounded=0;orthogonalLoop=1;jettySize=auto;html=1;exitX=1;exitY=0.5;exitDx=0;exitDy=0;entryX=0;entryY=0.5;entryDx=0;entryDy=0;fontSize=34;endArrow=classicThin;endFill=1;sketch=0;" edge="1" parent="1" source="kPeBdNNHWxssJcFeY2An-549" target="kPeBdNNHWxssJcFeY2An-562">
          <mxGeometry x="118.90000000000043" y="64.25000000000011" as="geometry" />
        </mxCell>
        <mxCell id="kPeBdNNHWxssJcFeY2An-565" value="" style="ellipse;whiteSpace=wrap;html=1;aspect=fixed;fillColor=#f5f5f5;fontColor=#333333;fontStyle=4;shadow=0;rounded=1;rotation=90;sketch=0;" vertex="1" parent="1">
          <mxGeometry x="293.87066447112295" y="392.1651830628415" width="23.622" height="23.62" as="geometry" />
        </mxCell>
        <mxCell id="kPeBdNNHWxssJcFeY2An-566" value="" style="ellipse;whiteSpace=wrap;html=1;aspect=fixed;fillColor=#f5f5f5;fontColor=#333333;fontStyle=4;shadow=0;rounded=1;rotation=90;sketch=0;" vertex="1" parent="1">
          <mxGeometry x="254.41576505515934" y="392.1651830628415" width="23.622" height="23.62" as="geometry" />
        </mxCell>
        <mxCell id="kPeBdNNHWxssJcFeY2An-567" style="edgeStyle=none;rounded=0;orthogonalLoop=1;jettySize=auto;html=1;exitX=1;exitY=0.5;exitDx=0;exitDy=0;entryX=0;entryY=0.5;entryDx=0;entryDy=0;fontSize=34;endArrow=classicThin;endFill=1;sketch=0;" edge="1" parent="1" source="kPeBdNNHWxssJcFeY2An-550" target="kPeBdNNHWxssJcFeY2An-566">
          <mxGeometry x="118.90000000000043" y="64.25000000000011" as="geometry" />
        </mxCell>
        <mxCell id="kPeBdNNHWxssJcFeY2An-568" style="edgeStyle=none;rounded=0;orthogonalLoop=1;jettySize=auto;html=1;exitX=1;exitY=0.5;exitDx=0;exitDy=0;entryX=0;entryY=0.5;entryDx=0;entryDy=0;fontSize=34;endArrow=classicThin;endFill=1;sketch=0;" edge="1" parent="1" source="kPeBdNNHWxssJcFeY2An-551" target="kPeBdNNHWxssJcFeY2An-566">
          <mxGeometry x="118.90000000000043" y="64.25000000000011" as="geometry" />
        </mxCell>
        <mxCell id="kPeBdNNHWxssJcFeY2An-569" value="" style="ellipse;whiteSpace=wrap;html=1;aspect=fixed;fillColor=#f5f5f5;fontColor=#333333;fontStyle=4;shadow=0;rounded=1;rotation=90;sketch=0;" vertex="1" parent="1">
          <mxGeometry x="214.96086563919573" y="392.1651830628415" width="23.622" height="23.62" as="geometry" />
        </mxCell>
        <mxCell id="kPeBdNNHWxssJcFeY2An-570" value="" style="ellipse;whiteSpace=wrap;html=1;aspect=fixed;fillColor=#f5f5f5;fontColor=#333333;fontStyle=4;shadow=0;rounded=1;rotation=90;sketch=0;" vertex="1" parent="1">
          <mxGeometry x="175.50596622323212" y="392.1651830628415" width="23.622" height="23.62" as="geometry" />
        </mxCell>
        <mxCell id="kPeBdNNHWxssJcFeY2An-571" style="edgeStyle=none;rounded=0;orthogonalLoop=1;jettySize=auto;html=1;exitX=1;exitY=0.5;exitDx=0;exitDy=0;entryX=0;entryY=0.5;entryDx=0;entryDy=0;fontSize=34;endArrow=classicThin;endFill=1;sketch=0;" edge="1" parent="1" source="kPeBdNNHWxssJcFeY2An-547" target="kPeBdNNHWxssJcFeY2An-570">
          <mxGeometry x="118.90000000000043" y="64.25000000000011" as="geometry" />
        </mxCell>
        <mxCell id="kPeBdNNHWxssJcFeY2An-572" style="edgeStyle=none;rounded=0;orthogonalLoop=1;jettySize=auto;html=1;exitX=1;exitY=0.5;exitDx=0;exitDy=0;entryX=0;entryY=0.5;entryDx=0;entryDy=0;fontSize=34;endArrow=classicThin;endFill=1;sketch=0;" edge="1" parent="1" source="kPeBdNNHWxssJcFeY2An-552" target="kPeBdNNHWxssJcFeY2An-570">
          <mxGeometry x="118.90000000000043" y="64.25000000000011" as="geometry" />
        </mxCell>
        <mxCell id="kPeBdNNHWxssJcFeY2An-573" value="" style="ellipse;whiteSpace=wrap;html=1;aspect=fixed;fillColor=#f5f5f5;fontColor=#333333;fontStyle=4;shadow=0;rounded=1;rotation=90;sketch=0;" vertex="1" parent="1">
          <mxGeometry x="136.05565000000036" y="392.1651830628415" width="23.622" height="23.62" as="geometry" />
        </mxCell>
        <mxCell id="kPeBdNNHWxssJcFeY2An-574" value="" style="ellipse;whiteSpace=wrap;html=1;aspect=fixed;fillColor=#f5f5f5;fontColor=#333333;fontStyle=4;shadow=0;rounded=1;rotation=90;sketch=0;" vertex="1" parent="1">
          <mxGeometry x="412.235362719014" y="392.1651830628415" width="23.622" height="23.62" as="geometry" />
        </mxCell>
        <mxCell id="kPeBdNNHWxssJcFeY2An-575" style="edgeStyle=none;rounded=0;orthogonalLoop=1;jettySize=auto;html=1;exitX=1;exitY=0.5;exitDx=0;exitDy=0;entryX=0;entryY=0.5;entryDx=0;entryDy=0;fontSize=34;endArrow=classicThin;endFill=1;sketch=0;" edge="1" parent="1" source="kPeBdNNHWxssJcFeY2An-553" target="kPeBdNNHWxssJcFeY2An-574">
          <mxGeometry x="118.90000000000043" y="64.25000000000011" as="geometry" />
        </mxCell>
        <mxCell id="kPeBdNNHWxssJcFeY2An-576" style="edgeStyle=none;rounded=0;orthogonalLoop=1;jettySize=auto;html=1;exitX=1;exitY=0.5;exitDx=0;exitDy=0;entryX=0;entryY=0.5;entryDx=0;entryDy=0;fontSize=34;endArrow=classicThin;endFill=1;sketch=0;" edge="1" parent="1" source="kPeBdNNHWxssJcFeY2An-554" target="kPeBdNNHWxssJcFeY2An-574">
          <mxGeometry x="118.90000000000043" y="64.25000000000011" as="geometry" />
        </mxCell>
        <mxCell id="kPeBdNNHWxssJcFeY2An-577" style="edgeStyle=none;rounded=0;orthogonalLoop=1;jettySize=auto;html=1;exitX=1;exitY=0.5;exitDx=0;exitDy=0;entryX=0;entryY=0.5;entryDx=0;entryDy=0;fontSize=34;endArrow=classicThin;endFill=1;sketch=0;" edge="1" parent="1" source="kPeBdNNHWxssJcFeY2An-555" target="kPeBdNNHWxssJcFeY2An-574">
          <mxGeometry x="118.90000000000043" y="64.25000000000011" as="geometry" />
        </mxCell>
        <mxCell id="kPeBdNNHWxssJcFeY2An-578" value="" style="ellipse;whiteSpace=wrap;html=1;aspect=fixed;fillColor=#f5f5f5;fontColor=#333333;fontStyle=4;shadow=0;rounded=1;rotation=90;sketch=0;" vertex="1" parent="1">
          <mxGeometry x="372.7804633030504" y="392.1651830628415" width="23.622" height="23.62" as="geometry" />
        </mxCell>
        <mxCell id="kPeBdNNHWxssJcFeY2An-579" value="" style="ellipse;whiteSpace=wrap;html=1;aspect=fixed;fillColor=#f5f5f5;fontColor=#333333;fontStyle=4;shadow=0;rounded=1;rotation=90;sketch=0;" vertex="1" parent="1">
          <mxGeometry x="451.6902621349776" y="392.1651830628415" width="23.622" height="23.62" as="geometry" />
        </mxCell>
        <mxCell id="kPeBdNNHWxssJcFeY2An-580" value="" style="ellipse;whiteSpace=wrap;html=1;aspect=fixed;fillColor=#f5f5f5;fontColor=#333333;fontStyle=4;shadow=0;rounded=1;rotation=90;sketch=0;" vertex="1" parent="1">
          <mxGeometry x="491.14516155094145" y="392.1651830628415" width="23.622" height="23.62" as="geometry" />
        </mxCell>
        <mxCell id="kPeBdNNHWxssJcFeY2An-581" style="edgeStyle=none;rounded=0;orthogonalLoop=1;jettySize=auto;html=1;exitX=1;exitY=0.5;exitDx=0;exitDy=0;entryX=0;entryY=0.5;entryDx=0;entryDy=0;fontSize=34;endArrow=classicThin;endFill=1;sketch=0;" edge="1" parent="1" source="kPeBdNNHWxssJcFeY2An-556" target="kPeBdNNHWxssJcFeY2An-580">
          <mxGeometry x="118.90000000000043" y="64.25000000000011" as="geometry" />
        </mxCell>
        <mxCell id="kPeBdNNHWxssJcFeY2An-582" style="edgeStyle=none;rounded=0;orthogonalLoop=1;jettySize=auto;html=1;exitX=1;exitY=0.5;exitDx=0;exitDy=0;entryX=0;entryY=0.5;entryDx=0;entryDy=0;fontSize=34;endArrow=classicThin;endFill=1;sketch=0;" edge="1" parent="1" source="kPeBdNNHWxssJcFeY2An-557" target="kPeBdNNHWxssJcFeY2An-580">
          <mxGeometry x="118.90000000000043" y="64.25000000000011" as="geometry" />
        </mxCell>
        <mxCell id="kPeBdNNHWxssJcFeY2An-583" value="" style="ellipse;whiteSpace=wrap;html=1;aspect=fixed;fillColor=#f5f5f5;fontColor=#333333;fontStyle=4;shadow=0;rounded=1;rotation=90;sketch=0;" vertex="1" parent="1">
          <mxGeometry x="530.6000609669051" y="392.1651830628415" width="23.622" height="23.62" as="geometry" />
        </mxCell>
        <mxCell id="kPeBdNNHWxssJcFeY2An-584" value="" style="ellipse;whiteSpace=wrap;html=1;aspect=fixed;fillColor=#f5f5f5;fontColor=#333333;fontStyle=4;shadow=0;rounded=1;rotation=90;sketch=0;" vertex="1" parent="1">
          <mxGeometry x="570.0549603828687" y="392.1651830628415" width="23.622" height="23.62" as="geometry" />
        </mxCell>
        <mxCell id="kPeBdNNHWxssJcFeY2An-585" style="edgeStyle=none;rounded=0;orthogonalLoop=1;jettySize=auto;html=1;exitX=1;exitY=0.5;exitDx=0;exitDy=0;entryX=0;entryY=0.5;entryDx=0;entryDy=0;fontSize=34;endArrow=classicThin;endFill=1;sketch=0;" edge="1" parent="1" source="kPeBdNNHWxssJcFeY2An-558" target="kPeBdNNHWxssJcFeY2An-584">
          <mxGeometry x="118.90000000000043" y="64.25000000000011" as="geometry" />
        </mxCell>
        <mxCell id="kPeBdNNHWxssJcFeY2An-586" style="edgeStyle=none;rounded=0;orthogonalLoop=1;jettySize=auto;html=1;exitX=1;exitY=0.5;exitDx=0;exitDy=0;entryX=0;entryY=0.5;entryDx=0;entryDy=0;fontSize=34;endArrow=classicThin;endFill=1;sketch=0;" edge="1" parent="1" source="kPeBdNNHWxssJcFeY2An-559" target="kPeBdNNHWxssJcFeY2An-584">
          <mxGeometry x="118.90000000000043" y="64.25000000000011" as="geometry" />
        </mxCell>
        <mxCell id="kPeBdNNHWxssJcFeY2An-587" value="" style="ellipse;whiteSpace=wrap;html=1;aspect=fixed;fillColor=#f5f5f5;fontColor=#333333;fontStyle=4;shadow=0;rounded=1;rotation=90;sketch=0;" vertex="1" parent="1">
          <mxGeometry x="609.509859798832" y="392.1651830628415" width="23.622" height="23.62" as="geometry" />
        </mxCell>
        <mxCell id="kPeBdNNHWxssJcFeY2An-588" value="" style="ellipse;whiteSpace=wrap;html=1;aspect=fixed;fillColor=#f5f5f5;fontColor=#333333;fontStyle=4;shadow=0;rounded=1;rotation=90;sketch=0;" vertex="1" parent="1">
          <mxGeometry x="648.9647592147961" y="392.1651830628415" width="23.622" height="23.62" as="geometry" />
        </mxCell>
        <mxCell id="kPeBdNNHWxssJcFeY2An-589" style="edgeStyle=none;rounded=0;orthogonalLoop=1;jettySize=auto;html=1;exitX=1;exitY=0.5;exitDx=0;exitDy=0;entryX=0;entryY=0.5;entryDx=0;entryDy=0;fontSize=34;endArrow=classicThin;endFill=1;sketch=0;" edge="1" parent="1" source="kPeBdNNHWxssJcFeY2An-560" target="kPeBdNNHWxssJcFeY2An-588">
          <mxGeometry x="118.90000000000043" y="64.25000000000011" as="geometry" />
        </mxCell>
        <mxCell id="kPeBdNNHWxssJcFeY2An-590" style="edgeStyle=none;rounded=0;orthogonalLoop=1;jettySize=auto;html=1;exitX=1;exitY=0.5;exitDx=0;exitDy=0;fontSize=34;endArrow=classicThin;endFill=1;entryX=0;entryY=0.5;entryDx=0;entryDy=0;sketch=0;" edge="1" parent="1" source="kPeBdNNHWxssJcFeY2An-561" target="kPeBdNNHWxssJcFeY2An-588">
          <mxGeometry x="118.90000000000043" y="64.25000000000011" as="geometry">
            <mxPoint x="681.2556500000004" y="385.4726830628415" as="targetPoint" />
          </mxGeometry>
        </mxCell>
        <mxCell id="kPeBdNNHWxssJcFeY2An-591" value="" style="ellipse;whiteSpace=wrap;html=1;aspect=fixed;fillColor=#f5f5f5;fontColor=#333333;fontStyle=4;shadow=0;rounded=1;rotation=90;sketch=0;" vertex="1" parent="1">
          <mxGeometry x="688.4196586307593" y="392.1651830628415" width="23.622" height="23.62" as="geometry" />
        </mxCell>
        <mxCell id="kPeBdNNHWxssJcFeY2An-592" value="" style="ellipse;whiteSpace=wrap;html=1;aspect=fixed;fillColor=#f5f5f5;fontColor=#333333;fontStyle=4;shadow=0;rounded=1;rotation=90;sketch=0;" vertex="1" parent="1">
          <mxGeometry x="333.1001470798186" y="441.3776830628415" width="23.622" height="23.62" as="geometry" />
        </mxCell>
        <mxCell id="kPeBdNNHWxssJcFeY2An-593" value="" style="ellipse;whiteSpace=wrap;html=1;aspect=fixed;fillColor=#f5f5f5;fontColor=#333333;fontStyle=4;shadow=0;rounded=1;rotation=90;sketch=0;" vertex="1" parent="1">
          <mxGeometry x="293.645247663855" y="441.3776830628415" width="23.622" height="23.62" as="geometry" />
        </mxCell>
        <mxCell id="kPeBdNNHWxssJcFeY2An-594" value="" style="ellipse;whiteSpace=wrap;html=1;aspect=fixed;fillColor=#f5f5f5;fontColor=#333333;fontStyle=4;shadow=0;rounded=1;rotation=90;sketch=0;" vertex="1" parent="1">
          <mxGeometry x="254.1903482478914" y="441.3776830628415" width="23.622" height="23.62" as="geometry" />
        </mxCell>
        <mxCell id="kPeBdNNHWxssJcFeY2An-595" style="edgeStyle=none;rounded=0;orthogonalLoop=1;jettySize=auto;html=1;exitX=1;exitY=0.5;exitDx=0;exitDy=0;entryX=0;entryY=0.5;entryDx=0;entryDy=0;fontSize=34;endArrow=classicThin;endFill=1;sketch=0;" edge="1" parent="1" source="kPeBdNNHWxssJcFeY2An-566" target="kPeBdNNHWxssJcFeY2An-594">
          <mxGeometry x="118.90000000000043" y="64.25000000000011" as="geometry" />
        </mxCell>
        <mxCell id="kPeBdNNHWxssJcFeY2An-596" style="edgeStyle=none;rounded=0;orthogonalLoop=1;jettySize=auto;html=1;exitX=1;exitY=0.5;exitDx=0;exitDy=0;entryX=0;entryY=0.5;entryDx=0;entryDy=0;fontSize=34;endArrow=classicThin;endFill=1;sketch=0;" edge="1" parent="1" source="kPeBdNNHWxssJcFeY2An-570" target="kPeBdNNHWxssJcFeY2An-594">
          <mxGeometry x="118.90000000000043" y="64.25000000000011" as="geometry" />
        </mxCell>
        <mxCell id="kPeBdNNHWxssJcFeY2An-597" value="" style="ellipse;whiteSpace=wrap;html=1;aspect=fixed;fillColor=#f5f5f5;fontColor=#333333;fontStyle=4;shadow=0;rounded=1;rotation=90;sketch=0;" vertex="1" parent="1">
          <mxGeometry x="214.73544883192778" y="441.3776830628415" width="23.622" height="23.62" as="geometry" />
        </mxCell>
        <mxCell id="kPeBdNNHWxssJcFeY2An-598" value="" style="ellipse;whiteSpace=wrap;html=1;aspect=fixed;fillColor=#f5f5f5;fontColor=#333333;fontStyle=4;shadow=0;rounded=1;rotation=90;sketch=0;" vertex="1" parent="1">
          <mxGeometry x="175.28054941596417" y="441.3776830628415" width="23.622" height="23.62" as="geometry" />
        </mxCell>
        <mxCell id="kPeBdNNHWxssJcFeY2An-599" value="" style="ellipse;whiteSpace=wrap;html=1;aspect=fixed;fillColor=#f5f5f5;fontColor=#333333;fontStyle=4;shadow=0;rounded=1;rotation=90;sketch=0;" vertex="1" parent="1">
          <mxGeometry x="136.05565000000036" y="441.3776830628415" width="23.622" height="23.62" as="geometry" />
        </mxCell>
        <mxCell id="kPeBdNNHWxssJcFeY2An-600" value="" style="ellipse;whiteSpace=wrap;html=1;aspect=fixed;fillColor=#f5f5f5;fontColor=#333333;fontStyle=4;shadow=0;rounded=1;rotation=90;sketch=0;" vertex="1" parent="1">
          <mxGeometry x="412.00994591174606" y="441.3776830628415" width="23.622" height="23.62" as="geometry" />
        </mxCell>
        <mxCell id="kPeBdNNHWxssJcFeY2An-601" style="edgeStyle=none;rounded=0;orthogonalLoop=1;jettySize=auto;html=1;exitX=1;exitY=0.5;exitDx=0;exitDy=0;entryX=0;entryY=0.5;entryDx=0;entryDy=0;fontSize=34;endArrow=classicThin;endFill=1;sketch=0;" edge="1" parent="1" source="kPeBdNNHWxssJcFeY2An-562" target="kPeBdNNHWxssJcFeY2An-600">
          <mxGeometry x="118.90000000000043" y="64.25000000000011" as="geometry" />
        </mxCell>
        <mxCell id="kPeBdNNHWxssJcFeY2An-602" style="edgeStyle=none;rounded=0;orthogonalLoop=1;jettySize=auto;html=1;exitX=1;exitY=0.5;exitDx=0;exitDy=0;entryX=0;entryY=0.5;entryDx=0;entryDy=0;fontSize=34;endArrow=classicThin;endFill=1;sketch=0;" edge="1" parent="1" source="kPeBdNNHWxssJcFeY2An-574" target="kPeBdNNHWxssJcFeY2An-600">
          <mxGeometry x="118.90000000000043" y="64.25000000000011" as="geometry" />
        </mxCell>
        <mxCell id="kPeBdNNHWxssJcFeY2An-603" style="edgeStyle=none;rounded=0;orthogonalLoop=1;jettySize=auto;html=1;exitX=1;exitY=0.5;exitDx=0;exitDy=0;entryX=0;entryY=0.5;entryDx=0;entryDy=0;fontSize=34;endArrow=classicThin;endFill=1;sketch=0;" edge="1" parent="1" source="kPeBdNNHWxssJcFeY2An-580" target="kPeBdNNHWxssJcFeY2An-600">
          <mxGeometry x="118.90000000000043" y="64.25000000000011" as="geometry" />
        </mxCell>
        <mxCell id="kPeBdNNHWxssJcFeY2An-604" value="" style="ellipse;whiteSpace=wrap;html=1;aspect=fixed;fillColor=#f5f5f5;fontColor=#333333;fontStyle=4;shadow=0;rounded=1;rotation=90;sketch=0;" vertex="1" parent="1">
          <mxGeometry x="372.55504649578245" y="441.3776830628415" width="23.622" height="23.62" as="geometry" />
        </mxCell>
        <mxCell id="kPeBdNNHWxssJcFeY2An-605" value="" style="ellipse;whiteSpace=wrap;html=1;aspect=fixed;fillColor=#f5f5f5;fontColor=#333333;fontStyle=4;shadow=0;rounded=1;rotation=90;sketch=0;" vertex="1" parent="1">
          <mxGeometry x="451.46484532770967" y="441.3776830628415" width="23.622" height="23.62" as="geometry" />
        </mxCell>
        <mxCell id="kPeBdNNHWxssJcFeY2An-606" value="" style="ellipse;whiteSpace=wrap;html=1;aspect=fixed;fillColor=#f5f5f5;fontColor=#333333;fontStyle=4;shadow=0;rounded=1;rotation=90;sketch=0;" vertex="1" parent="1">
          <mxGeometry x="490.9197447436735" y="441.3776830628415" width="23.622" height="23.62" as="geometry" />
        </mxCell>
        <mxCell id="kPeBdNNHWxssJcFeY2An-607" value="" style="ellipse;whiteSpace=wrap;html=1;aspect=fixed;fillColor=#f5f5f5;fontColor=#333333;fontStyle=4;shadow=0;rounded=1;rotation=90;sketch=0;" vertex="1" parent="1">
          <mxGeometry x="530.3746441596371" y="441.3776830628415" width="23.622" height="23.62" as="geometry" />
        </mxCell>
        <mxCell id="kPeBdNNHWxssJcFeY2An-608" value="" style="ellipse;whiteSpace=wrap;html=1;aspect=fixed;fillColor=#f5f5f5;fontColor=#333333;fontStyle=4;shadow=0;rounded=1;rotation=90;sketch=0;" vertex="1" parent="1">
          <mxGeometry x="569.8295435756007" y="441.3776830628415" width="23.622" height="23.62" as="geometry" />
        </mxCell>
        <mxCell id="kPeBdNNHWxssJcFeY2An-609" style="edgeStyle=none;rounded=0;orthogonalLoop=1;jettySize=auto;html=1;exitX=1;exitY=0.5;exitDx=0;exitDy=0;entryX=0;entryY=0.5;entryDx=0;entryDy=0;fontSize=34;endArrow=classicThin;endFill=1;sketch=0;" edge="1" parent="1" source="kPeBdNNHWxssJcFeY2An-584" target="kPeBdNNHWxssJcFeY2An-608">
          <mxGeometry x="118.90000000000043" y="64.25000000000011" as="geometry" />
        </mxCell>
        <mxCell id="kPeBdNNHWxssJcFeY2An-610" style="edgeStyle=none;rounded=0;orthogonalLoop=1;jettySize=auto;html=1;exitX=1;exitY=0.5;exitDx=0;exitDy=0;entryX=0;entryY=0.5;entryDx=0;entryDy=0;fontSize=34;endArrow=classicThin;endFill=1;sketch=0;" edge="1" parent="1" source="kPeBdNNHWxssJcFeY2An-588" target="kPeBdNNHWxssJcFeY2An-608">
          <mxGeometry x="118.90000000000043" y="64.25000000000011" as="geometry" />
        </mxCell>
        <mxCell id="kPeBdNNHWxssJcFeY2An-611" value="" style="ellipse;whiteSpace=wrap;html=1;aspect=fixed;fillColor=#f5f5f5;fontColor=#333333;fontStyle=4;shadow=0;rounded=1;rotation=90;sketch=0;" vertex="1" parent="1">
          <mxGeometry x="609.2844429915643" y="441.3776830628415" width="23.622" height="23.62" as="geometry" />
        </mxCell>
        <mxCell id="kPeBdNNHWxssJcFeY2An-612" value="" style="ellipse;whiteSpace=wrap;html=1;aspect=fixed;fillColor=#f5f5f5;fontColor=#333333;fontStyle=4;shadow=0;rounded=1;rotation=90;sketch=0;" vertex="1" parent="1">
          <mxGeometry x="648.7393424075279" y="441.3776830628415" width="23.622" height="23.62" as="geometry" />
        </mxCell>
        <mxCell id="kPeBdNNHWxssJcFeY2An-613" value="" style="ellipse;whiteSpace=wrap;html=1;aspect=fixed;fillColor=#f5f5f5;fontColor=#333333;fontStyle=4;shadow=0;rounded=1;rotation=90;sketch=0;" vertex="1" parent="1">
          <mxGeometry x="688.1942418234916" y="441.3776830628415" width="23.622" height="23.62" as="geometry" />
        </mxCell>
        <mxCell id="kPeBdNNHWxssJcFeY2An-614" value="" style="ellipse;whiteSpace=wrap;html=1;aspect=fixed;fillColor=#f5f5f5;fontColor=#333333;fontStyle=4;shadow=0;rounded=1;rotation=90;sketch=0;" vertex="1" parent="1">
          <mxGeometry x="333.3301470798184" y="490.59018306284156" width="23.622" height="23.62" as="geometry" />
        </mxCell>
        <mxCell id="kPeBdNNHWxssJcFeY2An-615" value="" style="ellipse;whiteSpace=wrap;html=1;aspect=fixed;fillColor=#f5f5f5;fontColor=#333333;fontStyle=4;shadow=0;rounded=1;rotation=90;sketch=0;" vertex="1" parent="1">
          <mxGeometry x="293.8752476638548" y="490.59018306284156" width="23.622" height="23.62" as="geometry" />
        </mxCell>
        <mxCell id="kPeBdNNHWxssJcFeY2An-616" value="" style="ellipse;whiteSpace=wrap;html=1;aspect=fixed;fillColor=#f5f5f5;fontColor=#333333;fontStyle=4;shadow=0;rounded=1;rotation=90;sketch=0;" vertex="1" parent="1">
          <mxGeometry x="254.42034824789118" y="490.59018306284156" width="23.622" height="23.62" as="geometry" />
        </mxCell>
        <mxCell id="kPeBdNNHWxssJcFeY2An-617" value="" style="ellipse;whiteSpace=wrap;html=1;aspect=fixed;fillColor=#f5f5f5;fontColor=#333333;fontStyle=4;shadow=0;rounded=1;rotation=90;sketch=0;" vertex="1" parent="1">
          <mxGeometry x="214.96544883192757" y="490.59018306284156" width="23.622" height="23.62" as="geometry" />
        </mxCell>
        <mxCell id="kPeBdNNHWxssJcFeY2An-618" value="" style="ellipse;whiteSpace=wrap;html=1;aspect=fixed;fillColor=#f5f5f5;fontColor=#333333;fontStyle=4;shadow=0;rounded=1;rotation=90;sketch=0;" vertex="1" parent="1">
          <mxGeometry x="175.51054941596396" y="490.59018306284156" width="23.622" height="23.62" as="geometry" />
        </mxCell>
        <mxCell id="kPeBdNNHWxssJcFeY2An-619" value="" style="ellipse;whiteSpace=wrap;html=1;aspect=fixed;fillColor=#f5f5f5;fontColor=#333333;fontStyle=4;shadow=0;rounded=1;rotation=90;sketch=0;" vertex="1" parent="1">
          <mxGeometry x="136.05565000000036" y="490.59018306284156" width="23.622" height="23.62" as="geometry" />
        </mxCell>
        <mxCell id="kPeBdNNHWxssJcFeY2An-620" value="" style="ellipse;whiteSpace=wrap;html=1;aspect=fixed;fillColor=#f5f5f5;fontColor=#333333;fontStyle=4;shadow=0;rounded=1;rotation=90;sketch=0;" vertex="1" parent="1">
          <mxGeometry x="412.23994591174585" y="490.59018306284156" width="23.622" height="23.62" as="geometry" />
        </mxCell>
        <mxCell id="kPeBdNNHWxssJcFeY2An-621" style="edgeStyle=none;rounded=0;orthogonalLoop=1;jettySize=auto;html=1;exitX=1;exitY=0.5;exitDx=0;exitDy=0;entryX=0;entryY=0.5;entryDx=0;entryDy=0;fontSize=34;endArrow=classicThin;endFill=1;sketch=0;" edge="1" parent="1" source="kPeBdNNHWxssJcFeY2An-594" target="kPeBdNNHWxssJcFeY2An-620">
          <mxGeometry x="118.90000000000043" y="64.25000000000011" as="geometry" />
        </mxCell>
        <mxCell id="kPeBdNNHWxssJcFeY2An-622" style="edgeStyle=none;rounded=0;orthogonalLoop=1;jettySize=auto;html=1;exitX=1;exitY=0.5;exitDx=0;exitDy=0;entryX=0;entryY=0.5;entryDx=0;entryDy=0;fontSize=34;endArrow=classicThin;endFill=1;sketch=0;" edge="1" parent="1" source="kPeBdNNHWxssJcFeY2An-600" target="kPeBdNNHWxssJcFeY2An-620">
          <mxGeometry x="118.90000000000043" y="64.25000000000011" as="geometry" />
        </mxCell>
        <mxCell id="kPeBdNNHWxssJcFeY2An-623" style="edgeStyle=none;rounded=0;orthogonalLoop=1;jettySize=auto;html=1;exitX=1;exitY=0.5;exitDx=0;exitDy=0;entryX=0;entryY=0.5;entryDx=0;entryDy=0;fontSize=34;endArrow=classicThin;endFill=1;sketch=0;" edge="1" parent="1" source="kPeBdNNHWxssJcFeY2An-608" target="kPeBdNNHWxssJcFeY2An-620">
          <mxGeometry x="118.90000000000043" y="64.25000000000011" as="geometry" />
        </mxCell>
        <mxCell id="kPeBdNNHWxssJcFeY2An-624" value="" style="ellipse;whiteSpace=wrap;html=1;aspect=fixed;fillColor=#f5f5f5;fontColor=#333333;fontStyle=4;shadow=0;rounded=1;rotation=90;sketch=0;" vertex="1" parent="1">
          <mxGeometry x="372.78504649578224" y="490.59018306284156" width="23.622" height="23.62" as="geometry" />
        </mxCell>
        <mxCell id="kPeBdNNHWxssJcFeY2An-625" value="" style="ellipse;whiteSpace=wrap;html=1;aspect=fixed;fillColor=#f5f5f5;fontColor=#333333;fontStyle=4;shadow=0;rounded=1;rotation=90;sketch=0;" vertex="1" parent="1">
          <mxGeometry x="451.69484532770946" y="490.59018306284156" width="23.622" height="23.62" as="geometry" />
        </mxCell>
        <mxCell id="kPeBdNNHWxssJcFeY2An-626" value="" style="ellipse;whiteSpace=wrap;html=1;aspect=fixed;fillColor=#f5f5f5;fontColor=#333333;fontStyle=4;shadow=0;rounded=1;rotation=90;sketch=0;" vertex="1" parent="1">
          <mxGeometry x="491.1497447436733" y="490.59018306284156" width="23.622" height="23.62" as="geometry" />
        </mxCell>
        <mxCell id="kPeBdNNHWxssJcFeY2An-627" value="" style="ellipse;whiteSpace=wrap;html=1;aspect=fixed;fillColor=#f5f5f5;fontColor=#333333;fontStyle=4;shadow=0;rounded=1;rotation=90;sketch=0;" vertex="1" parent="1">
          <mxGeometry x="530.6046441596369" y="490.59018306284156" width="23.622" height="23.62" as="geometry" />
        </mxCell>
        <mxCell id="kPeBdNNHWxssJcFeY2An-628" value="" style="ellipse;whiteSpace=wrap;html=1;aspect=fixed;fillColor=#f5f5f5;fontColor=#333333;fontStyle=4;shadow=0;rounded=1;rotation=90;sketch=0;" vertex="1" parent="1">
          <mxGeometry x="570.0595435756005" y="490.59018306284156" width="23.622" height="23.62" as="geometry" />
        </mxCell>
        <mxCell id="kPeBdNNHWxssJcFeY2An-629" value="" style="ellipse;whiteSpace=wrap;html=1;aspect=fixed;fillColor=#f5f5f5;fontColor=#333333;fontStyle=4;shadow=0;rounded=1;rotation=90;sketch=0;" vertex="1" parent="1">
          <mxGeometry x="609.5144429915644" y="490.59018306284156" width="23.622" height="23.62" as="geometry" />
        </mxCell>
        <mxCell id="kPeBdNNHWxssJcFeY2An-630" value="" style="ellipse;whiteSpace=wrap;html=1;aspect=fixed;fillColor=#f5f5f5;fontColor=#333333;fontStyle=4;shadow=0;rounded=1;rotation=90;sketch=0;" vertex="1" parent="1">
          <mxGeometry x="648.969342407528" y="490.59018306284156" width="23.622" height="23.62" as="geometry" />
        </mxCell>
        <mxCell id="kPeBdNNHWxssJcFeY2An-631" value="" style="ellipse;whiteSpace=wrap;html=1;aspect=fixed;fillColor=#f5f5f5;fontColor=#333333;fontStyle=4;shadow=0;rounded=1;rotation=90;sketch=0;" vertex="1" parent="1">
          <mxGeometry x="688.4242418234916" y="490.59018306284156" width="23.622" height="23.62" as="geometry" />
        </mxCell>
        <mxCell id="kPeBdNNHWxssJcFeY2An-632" value="" style="ellipse;whiteSpace=wrap;html=1;aspect=fixed;fillColor=#f5f5f5;fontColor=#333333;fontStyle=4;shadow=0;rounded=1;rotation=90;sketch=0;" vertex="1" parent="1">
          <mxGeometry x="333.3302638870865" y="539.8026830628415" width="23.622" height="23.62" as="geometry" />
        </mxCell>
        <mxCell id="kPeBdNNHWxssJcFeY2An-633" value="" style="ellipse;whiteSpace=wrap;html=1;aspect=fixed;fillColor=#f5f5f5;fontColor=#333333;fontStyle=4;shadow=0;rounded=1;rotation=90;sketch=0;" vertex="1" parent="1">
          <mxGeometry x="293.8753644711229" y="539.8026830628415" width="23.622" height="23.62" as="geometry" />
        </mxCell>
        <mxCell id="kPeBdNNHWxssJcFeY2An-634" value="" style="ellipse;whiteSpace=wrap;html=1;aspect=fixed;fillColor=#f5f5f5;fontColor=#333333;fontStyle=4;shadow=0;rounded=1;rotation=90;sketch=0;" vertex="1" parent="1">
          <mxGeometry x="254.4204650551593" y="539.8026830628415" width="23.622" height="23.62" as="geometry" />
        </mxCell>
        <mxCell id="kPeBdNNHWxssJcFeY2An-635" value="" style="ellipse;whiteSpace=wrap;html=1;aspect=fixed;fillColor=#f5f5f5;fontColor=#333333;fontStyle=4;shadow=0;rounded=1;rotation=90;sketch=0;" vertex="1" parent="1">
          <mxGeometry x="214.9655656391957" y="539.8026830628415" width="23.622" height="23.62" as="geometry" />
        </mxCell>
        <mxCell id="kPeBdNNHWxssJcFeY2An-636" value="" style="ellipse;whiteSpace=wrap;html=1;aspect=fixed;fillColor=#f5f5f5;fontColor=#333333;fontStyle=4;shadow=0;rounded=1;rotation=90;sketch=0;" vertex="1" parent="1">
          <mxGeometry x="175.51066622323208" y="539.8026830628415" width="23.622" height="23.62" as="geometry" />
        </mxCell>
        <mxCell id="kPeBdNNHWxssJcFeY2An-637" value="" style="ellipse;whiteSpace=wrap;html=1;aspect=fixed;fillColor=#f5f5f5;fontColor=#333333;fontStyle=4;shadow=0;rounded=1;rotation=90;sketch=0;" vertex="1" parent="1">
          <mxGeometry x="136.05576680726847" y="539.8026830628415" width="23.622" height="23.62" as="geometry" />
        </mxCell>
        <mxCell id="kPeBdNNHWxssJcFeY2An-638" value="" style="ellipse;whiteSpace=wrap;html=1;aspect=fixed;fillColor=#f5f5f5;fontColor=#333333;fontStyle=4;shadow=0;rounded=1;rotation=90;sketch=0;" vertex="1" parent="1">
          <mxGeometry x="412.24006271901396" y="539.8026830628415" width="23.622" height="23.62" as="geometry" />
        </mxCell>
        <mxCell id="kPeBdNNHWxssJcFeY2An-639" style="edgeStyle=none;rounded=0;orthogonalLoop=1;jettySize=auto;html=1;exitX=1;exitY=0.5;exitDx=0;exitDy=0;entryX=0;entryY=0.5;entryDx=0;entryDy=0;fontSize=34;endArrow=classicThin;endFill=1;strokeColor=#000000;sketch=0;" edge="1" parent="1" source="kPeBdNNHWxssJcFeY2An-620" target="kPeBdNNHWxssJcFeY2An-638">
          <mxGeometry x="118.90000000000043" y="64.25000000000011" as="geometry" />
        </mxCell>
        <mxCell id="kPeBdNNHWxssJcFeY2An-640" value="" style="ellipse;whiteSpace=wrap;html=1;aspect=fixed;fillColor=#f5f5f5;fontColor=#333333;fontStyle=4;shadow=0;rounded=1;rotation=90;sketch=0;" vertex="1" parent="1">
          <mxGeometry x="372.78516330305035" y="539.8026830628415" width="23.622" height="23.62" as="geometry" />
        </mxCell>
        <mxCell id="kPeBdNNHWxssJcFeY2An-641" value="" style="ellipse;whiteSpace=wrap;html=1;aspect=fixed;fillColor=#f5f5f5;fontColor=#333333;fontStyle=4;shadow=0;rounded=1;rotation=90;sketch=0;" vertex="1" parent="1">
          <mxGeometry x="451.6949621349776" y="539.8026830628415" width="23.622" height="23.62" as="geometry" />
        </mxCell>
        <mxCell id="kPeBdNNHWxssJcFeY2An-642" value="" style="ellipse;whiteSpace=wrap;html=1;aspect=fixed;fillColor=#f5f5f5;fontColor=#333333;fontStyle=4;shadow=0;rounded=1;rotation=90;sketch=0;" vertex="1" parent="1">
          <mxGeometry x="491.1498615509414" y="539.8026830628415" width="23.622" height="23.62" as="geometry" />
        </mxCell>
        <mxCell id="kPeBdNNHWxssJcFeY2An-643" value="" style="ellipse;whiteSpace=wrap;html=1;aspect=fixed;fillColor=#f5f5f5;fontColor=#333333;fontStyle=4;shadow=0;rounded=1;rotation=90;sketch=0;" vertex="1" parent="1">
          <mxGeometry x="530.604760966905" y="539.8026830628415" width="23.622" height="23.62" as="geometry" />
        </mxCell>
        <mxCell id="kPeBdNNHWxssJcFeY2An-644" value="" style="ellipse;whiteSpace=wrap;html=1;aspect=fixed;fillColor=#f5f5f5;fontColor=#333333;fontStyle=4;shadow=0;rounded=1;rotation=90;sketch=0;" vertex="1" parent="1">
          <mxGeometry x="570.0596603828686" y="539.8026830628415" width="23.622" height="23.62" as="geometry" />
        </mxCell>
        <mxCell id="kPeBdNNHWxssJcFeY2An-645" value="" style="ellipse;whiteSpace=wrap;html=1;aspect=fixed;fillColor=#f5f5f5;fontColor=#333333;fontStyle=4;shadow=0;rounded=1;rotation=90;sketch=0;" vertex="1" parent="1">
          <mxGeometry x="609.5145597988325" y="539.8026830628415" width="23.622" height="23.62" as="geometry" />
        </mxCell>
        <mxCell id="kPeBdNNHWxssJcFeY2An-646" value="" style="ellipse;whiteSpace=wrap;html=1;aspect=fixed;fillColor=#f5f5f5;fontColor=#333333;fontStyle=4;shadow=0;rounded=1;rotation=90;sketch=0;" vertex="1" parent="1">
          <mxGeometry x="648.9694592147961" y="539.8026830628415" width="23.622" height="23.62" as="geometry" />
        </mxCell>
        <mxCell id="kPeBdNNHWxssJcFeY2An-647" value="" style="ellipse;whiteSpace=wrap;html=1;aspect=fixed;fillColor=#f5f5f5;fontColor=#333333;fontStyle=4;shadow=0;rounded=1;rotation=90;sketch=0;" vertex="1" parent="1">
          <mxGeometry x="688.4243586307597" y="539.8026830628415" width="23.622" height="23.62" as="geometry" />
        </mxCell>
        <mxCell id="kPeBdNNHWxssJcFeY2An-648" value="" style="verticalLabelPosition=bottom;verticalAlign=top;html=1;shape=mxgraph.basic.patternFillRect;fillStyle=hor;step=5;fillStrokeWidth=0.5;fillStrokeColor=#212121;rounded=1;fontSize=34;strokeWidth=1;strokeColor=none;fillColor=#D7EEFF;sketch=0;" vertex="1" parent="1">
          <mxGeometry x="214.79565000000036" y="170.47268306284147" width="23.622" height="130" as="geometry" />
        </mxCell>
        <mxCell id="kPeBdNNHWxssJcFeY2An-649" value="" style="verticalLabelPosition=bottom;verticalAlign=top;html=1;shape=mxgraph.basic.patternFillRect;fillStyle=hor;step=5;fillStrokeWidth=0.5;fillStrokeColor=#212121;rounded=1;fontSize=34;strokeWidth=1;strokeColor=none;fillColor=#D7EEFF;sketch=0;" vertex="1" parent="1">
          <mxGeometry x="254.16565000000026" y="170.47268306284147" width="23.622" height="130" as="geometry" />
        </mxCell>
        <mxCell id="kPeBdNNHWxssJcFeY2An-650" value="" style="verticalLabelPosition=bottom;verticalAlign=top;html=1;shape=mxgraph.basic.patternFillRect;fillStyle=hor;step=5;fillStrokeWidth=0.5;fillStrokeColor=#212121;rounded=1;fontSize=34;strokeWidth=1;strokeColor=none;fillColor=#D7EEFF;sketch=0;" vertex="1" parent="1">
          <mxGeometry x="293.5356500000004" y="170.47268306284147" width="23.622" height="130" as="geometry" />
        </mxCell>
        <mxCell id="kPeBdNNHWxssJcFeY2An-651" value="" style="verticalLabelPosition=bottom;verticalAlign=top;html=1;shape=mxgraph.basic.patternFillRect;fillStyle=hor;step=5;fillStrokeWidth=0.5;fillStrokeColor=#212121;rounded=1;fontSize=34;strokeWidth=1;strokeColor=none;fillColor=#D7EEFF;sketch=0;" vertex="1" parent="1">
          <mxGeometry x="332.90565000000026" y="170.47268306284147" width="23.622" height="130" as="geometry" />
        </mxCell>
        <mxCell id="kPeBdNNHWxssJcFeY2An-652" value="" style="verticalLabelPosition=bottom;verticalAlign=top;html=1;shape=mxgraph.basic.patternFillRect;fillStyle=hor;step=5;fillStrokeWidth=0.5;fillStrokeColor=#212121;rounded=1;fontSize=34;strokeWidth=1;strokeColor=none;fillColor=#D7EEFF;sketch=0;" vertex="1" parent="1">
          <mxGeometry x="372.2756500000004" y="170.47268306284147" width="23.622" height="130" as="geometry" />
        </mxCell>
        <mxCell id="kPeBdNNHWxssJcFeY2An-653" value="" style="verticalLabelPosition=bottom;verticalAlign=top;html=1;shape=mxgraph.basic.patternFillRect;fillStyle=hor;step=5;fillStrokeWidth=0.5;fillStrokeColor=#212121;rounded=1;fontSize=34;strokeWidth=1;strokeColor=none;fillColor=#D7EEFF;sketch=0;" vertex="1" parent="1">
          <mxGeometry x="411.6456500000003" y="170.47268306284147" width="23.622" height="130" as="geometry" />
        </mxCell>
        <mxCell id="kPeBdNNHWxssJcFeY2An-654" value="" style="verticalLabelPosition=bottom;verticalAlign=top;html=1;shape=mxgraph.basic.patternFillRect;fillStyle=hor;step=5;fillStrokeWidth=0.5;fillStrokeColor=#212121;rounded=1;fontSize=34;strokeWidth=1;strokeColor=none;fillColor=#D7EEFF;sketch=0;" vertex="1" parent="1">
          <mxGeometry x="451.01565000000016" y="170.47268306284147" width="23.622" height="130" as="geometry" />
        </mxCell>
        <mxCell id="kPeBdNNHWxssJcFeY2An-655" value="" style="verticalLabelPosition=bottom;verticalAlign=top;html=1;shape=mxgraph.basic.patternFillRect;fillStyle=hor;step=5;fillStrokeWidth=0.5;fillStrokeColor=#212121;rounded=1;fontSize=34;strokeWidth=1;strokeColor=none;fillColor=#D7EEFF;sketch=0;" vertex="1" parent="1">
          <mxGeometry x="490.3856500000003" y="170.47268306284147" width="23.622" height="130" as="geometry" />
        </mxCell>
        <mxCell id="kPeBdNNHWxssJcFeY2An-656" value="" style="verticalLabelPosition=bottom;verticalAlign=top;html=1;shape=mxgraph.basic.patternFillRect;fillStyle=hor;step=5;fillStrokeWidth=0.5;fillStrokeColor=#212121;rounded=1;fontSize=34;strokeWidth=1;strokeColor=none;fillColor=#D7EEFF;sketch=0;" vertex="1" parent="1">
          <mxGeometry x="529.7556500000002" y="170.47268306284147" width="23.622" height="130" as="geometry" />
        </mxCell>
        <mxCell id="kPeBdNNHWxssJcFeY2An-657" value="" style="verticalLabelPosition=bottom;verticalAlign=top;html=1;shape=mxgraph.basic.patternFillRect;fillStyle=hor;step=5;fillStrokeWidth=0.5;fillStrokeColor=#212121;rounded=1;fontSize=34;strokeWidth=1;strokeColor=none;fillColor=#D7EEFF;sketch=0;" vertex="1" parent="1">
          <mxGeometry x="569.1256500000003" y="170.47268306284147" width="23.622" height="130" as="geometry" />
        </mxCell>
        <mxCell id="kPeBdNNHWxssJcFeY2An-658" value="" style="verticalLabelPosition=bottom;verticalAlign=top;html=1;shape=mxgraph.basic.patternFillRect;fillStyle=hor;step=5;fillStrokeWidth=0.5;fillStrokeColor=#212121;rounded=1;fontSize=34;strokeWidth=1;strokeColor=none;fillColor=#D7EEFF;sketch=0;" vertex="1" parent="1">
          <mxGeometry x="608.4956500000002" y="170.47268306284147" width="23.622" height="130" as="geometry" />
        </mxCell>
        <mxCell id="kPeBdNNHWxssJcFeY2An-659" value="" style="verticalLabelPosition=bottom;verticalAlign=top;html=1;shape=mxgraph.basic.patternFillRect;fillStyle=hor;step=5;fillStrokeWidth=0.5;fillStrokeColor=#212121;rounded=1;fontSize=34;strokeWidth=1;strokeColor=none;fillColor=#D7EEFF;sketch=0;" vertex="1" parent="1">
          <mxGeometry x="647.8656500000005" y="170.47268306284147" width="23.622" height="130" as="geometry" />
        </mxCell>
        <mxCell id="kPeBdNNHWxssJcFeY2An-660" value="" style="verticalLabelPosition=bottom;verticalAlign=top;html=1;shape=mxgraph.basic.patternFillRect;fillStyle=hor;step=5;fillStrokeWidth=0.5;fillStrokeColor=#212121;rounded=1;fontSize=16;strokeWidth=1;strokeColor=none;fillColor=#D7EEFF;sketch=0;" vertex="1" parent="1">
          <mxGeometry x="687.2356500000004" y="170.47268306284147" width="23.622" height="130" as="geometry" />
        </mxCell>
        <mxCell id="kPeBdNNHWxssJcFeY2An-662" value="" style="endArrow=none;dashed=1;html=1;fontSize=34;strokeColor=#000000;entryX=0;entryY=1;entryDx=0;entryDy=0;entryPerimeter=0;exitX=0;exitY=0;exitDx=0;exitDy=0;exitPerimeter=0;strokeWidth=2;sketch=0;" edge="1" parent="1">
          <mxGeometry x="126.2551500000003" y="64.24818306284126" width="50" height="50" as="geometry">
            <mxPoint x="285.62365000000057" y="64.2536338743173" as="sourcePoint" />
            <mxPoint x="285.62365000000057" y="300.45546450273025" as="targetPoint" />
          </mxGeometry>
        </mxCell>
        <mxCell id="kPeBdNNHWxssJcFeY2An-663" value="" style="endArrow=none;dashed=1;html=1;fontSize=34;strokeColor=#000000;entryX=0;entryY=1;entryDx=0;entryDy=0;entryPerimeter=0;exitX=0;exitY=0;exitDx=0;exitDy=0;exitPerimeter=0;strokeWidth=2;sketch=0;" edge="1" parent="1">
          <mxGeometry x="126.2551500000003" y="64.24818306284126" width="50" height="50" as="geometry">
            <mxPoint x="403.4426500000003" y="64.25181693715881" as="sourcePoint" />
            <mxPoint x="403.4426500000003" y="300.45364756557177" as="targetPoint" />
          </mxGeometry>
        </mxCell>
        <mxCell id="kPeBdNNHWxssJcFeY2An-664" value="" style="endArrow=none;dashed=1;html=1;fontSize=34;strokeColor=#000000;entryX=0;entryY=1;entryDx=0;entryDy=0;entryPerimeter=0;exitX=0;exitY=0;exitDx=0;exitDy=0;exitPerimeter=0;strokeWidth=2;sketch=0;" edge="1" parent="1">
          <mxGeometry x="126.2551500000003" y="64.24818306284126" width="50" height="50" as="geometry">
            <mxPoint x="442.90215000000046" y="64.25090846857928" as="sourcePoint" />
            <mxPoint x="442.90215000000046" y="300.4527390969922" as="targetPoint" />
          </mxGeometry>
        </mxCell>
        <mxCell id="kPeBdNNHWxssJcFeY2An-665" value="" style="endArrow=none;dashed=1;html=1;fontSize=34;strokeColor=#000000;entryX=0;entryY=1;entryDx=0;entryDy=0;entryPerimeter=0;exitX=0;exitY=0;exitDx=0;exitDy=0;exitPerimeter=0;strokeWidth=2;sketch=0;" edge="1" parent="1">
          <mxGeometry x="126.2551500000003" y="64.24818306284126" width="50" height="50" as="geometry">
            <mxPoint x="560.9216500000001" y="64.25000000000011" as="sourcePoint" />
            <mxPoint x="560.9216500000001" y="300.45183062841306" as="targetPoint" />
          </mxGeometry>
        </mxCell>
        <mxCell id="kPeBdNNHWxssJcFeY2An-666" value="" style="endArrow=none;dashed=1;html=1;fontSize=34;strokeColor=#000000;entryX=0;entryY=1;entryDx=0;entryDy=0;entryPerimeter=0;exitX=0;exitY=0;exitDx=0;exitDy=0;exitPerimeter=0;strokeWidth=2;sketch=0;" edge="1" parent="1">
          <mxGeometry x="126.2551500000003" y="64.24818306284126" width="50" height="50" as="geometry">
            <mxPoint x="718.5801500000006" y="64.26635243442823" as="sourcePoint" />
            <mxPoint x="718.5801500000006" y="300.46818306284126" as="targetPoint" />
          </mxGeometry>
        </mxCell>
        <mxCell id="kPeBdNNHWxssJcFeY2An-667" value="" style="endArrow=none;dashed=1;html=1;fontSize=34;strokeColor=#000000;entryX=0;entryY=1;entryDx=0;entryDy=0;entryPerimeter=0;exitX=0;exitY=0;exitDx=0;exitDy=0;exitPerimeter=0;strokeWidth=2;sketch=0;" edge="1" parent="1">
          <mxGeometry x="126.2551500000003" y="64.24818306284126" width="50" height="50" as="geometry">
            <mxPoint x="126.2551500000003" y="64.25454234289724" as="sourcePoint" />
            <mxPoint x="126.2551500000003" y="300.4563729713102" as="targetPoint" />
          </mxGeometry>
        </mxCell>
        <mxCell id="kPeBdNNHWxssJcFeY2An-668" value="&lt;div&gt;There&lt;/div&gt;" style="text;html=1;strokeColor=none;fillColor=none;align=center;verticalAlign=middle;whiteSpace=wrap;rounded=0;fontSize=34;sketch=0;" vertex="1" parent="1">
          <mxGeometry x="187.23565000000042" y="102.79268306284146" width="40" height="20" as="geometry" />
        </mxCell>
        <mxCell id="kPeBdNNHWxssJcFeY2An-669" value="was" style="text;html=1;strokeColor=none;fillColor=none;align=center;verticalAlign=middle;whiteSpace=wrap;rounded=0;fontSize=34;sketch=0;" vertex="1" parent="1">
          <mxGeometry x="324.71565000000044" y="102.79268306284146" width="40" height="20" as="geometry" />
        </mxCell>
        <mxCell id="kPeBdNNHWxssJcFeY2An-670" value="&lt;b&gt;a&lt;/b&gt;" style="text;html=1;strokeColor=none;fillColor=none;align=center;verticalAlign=middle;whiteSpace=wrap;rounded=0;fontSize=34;sketch=0;" vertex="1" parent="1">
          <mxGeometry x="404.05565000000036" y="102.79268306284146" width="40" height="20" as="geometry" />
        </mxCell>
        <mxCell id="kPeBdNNHWxssJcFeY2An-671" value="round" style="text;html=1;strokeColor=none;fillColor=none;align=center;verticalAlign=middle;whiteSpace=wrap;rounded=0;fontSize=34;sketch=0;" vertex="1" parent="1">
          <mxGeometry x="482.96565000000044" y="102.79268306284146" width="40" height="20" as="geometry" />
        </mxCell>
        <mxCell id="kPeBdNNHWxssJcFeY2An-672" value="tower" style="text;html=1;strokeColor=none;fillColor=none;align=center;verticalAlign=middle;whiteSpace=wrap;rounded=0;fontSize=34;sketch=0;" vertex="1" parent="1">
          <mxGeometry x="621.0940500000005" y="102.79268306284146" width="40" height="20" as="geometry" />
        </mxCell>
        <mxCell id="kPeBdNNHWxssJcFeY2An-1186" value="Multilayer perceptron" style="rounded=1;whiteSpace=wrap;html=1;shadow=0;glass=0;labelBackgroundColor=none;sketch=0;fontFamily=Georgia;fontSize=32;fontColor=#000000;strokeWidth=2;align=left;opacity=20;spacingLeft=15;dashed=1;dashPattern=1 2;fillColor=#67AB9F;" vertex="1" parent="1">
          <mxGeometry x="118.54" y="593" width="609.8413" height="80" as="geometry" />
        </mxCell>
        <mxCell id="kPeBdNNHWxssJcFeY2An-1195" style="rounded=0;orthogonalLoop=1;jettySize=auto;html=1;exitX=0.5;exitY=1;exitDx=0;exitDy=0;fontSize=36;fontColor=#E6E6E6;endArrow=classicThin;endFill=1;startSize=10;endSize=10;strokeColor=#111314;strokeWidth=4;sketch=0;entryX=0.5;entryY=0;entryDx=0;entryDy=0;startArrow=none;" edge="1" parent="1" source="kPeBdNNHWxssJcFeY2An-1232" target="kPeBdNNHWxssJcFeY2An-1190">
          <mxGeometry relative="1" as="geometry">
            <mxPoint x="425.8100000000004" y="815.8000000000002" as="sourcePoint" />
            <mxPoint x="426" y="870" as="targetPoint" />
          </mxGeometry>
        </mxCell>
        <mxCell id="kPeBdNNHWxssJcFeY2An-1199" value="ReLU" style="ellipse;whiteSpace=wrap;html=1;aspect=fixed;rounded=1;shadow=0;glass=0;labelBackgroundColor=none;sketch=0;fontFamily=Georgia;fontSize=16;fontColor=#000000;strokeColor=#000000;strokeWidth=1;opacity=70;align=center;fillColor=none;" vertex="1" parent="1">
          <mxGeometry x="653.0889999999999" y="602.9989999999999" width="60" height="60" as="geometry" />
        </mxCell>
        <mxCell id="kPeBdNNHWxssJcFeY2An-1201" value="Multilayer perceptron" style="rounded=1;whiteSpace=wrap;html=1;shadow=0;glass=0;labelBackgroundColor=none;sketch=0;fontFamily=Georgia;fontSize=32;fontColor=#000000;strokeWidth=2;align=left;opacity=20;spacingLeft=15;dashed=1;dashPattern=1 2;fillColor=#67AB9F;" vertex="1" parent="1">
          <mxGeometry x="811.83" y="593" width="609.8413" height="80" as="geometry" />
        </mxCell>
        <mxCell id="kPeBdNNHWxssJcFeY2An-1202" value="ReLU" style="ellipse;whiteSpace=wrap;html=1;aspect=fixed;rounded=1;shadow=0;glass=0;labelBackgroundColor=none;sketch=0;fontFamily=Georgia;fontSize=16;fontColor=#000000;strokeColor=#000000;strokeWidth=1;opacity=70;align=center;fillColor=none;" vertex="1" parent="1">
          <mxGeometry x="1350.779" y="602.9989999999999" width="60" height="60" as="geometry" />
        </mxCell>
        <mxCell id="kPeBdNNHWxssJcFeY2An-1219" value="" style="group;labelPosition=center;verticalLabelPosition=top;align=center;verticalAlign=top;spacingTop=11;spacing=11;" vertex="1" connectable="0" parent="1">
          <mxGeometry x="907" y="767" width="506.78" height="354.1199999999999" as="geometry" />
        </mxCell>
        <mxCell id="kPeBdNNHWxssJcFeY2An-1212" value="Gesture properties" style="group;strokeColor=#000000;container=0;fontSize=25;labelPosition=center;verticalLabelPosition=top;align=center;verticalAlign=middle;spacingTop=300;" vertex="1" connectable="0" parent="kPeBdNNHWxssJcFeY2An-1219">
          <mxGeometry width="506.78" height="352" as="geometry" />
        </mxCell>
        <mxCell id="kPeBdNNHWxssJcFeY2An-1167" value="" style="endArrow=none;html=1;fontSize=14;fontColor=#000000;startSize=10;endSize=10;strokeWidth=1;align=center;verticalAlign=middle;fontStyle=0;fontFamily=Georgia;sketch=0;" edge="1" parent="kPeBdNNHWxssJcFeY2An-1219">
          <mxGeometry x="14.796732026143786" y="171.7172423402717" width="39.60457516339869" height="42.95648852095078" as="geometry">
            <mxPoint x="8.459999999999923" y="346.12230399487294" as="sourcePoint" />
            <mxPoint x="493.22" y="346.12230399487294" as="targetPoint" />
          </mxGeometry>
        </mxCell>
        <mxCell id="kPeBdNNHWxssJcFeY2An-1168" value="21.2%" style="rounded=0;whiteSpace=wrap;html=1;glass=0;labelBackgroundColor=none;sketch=0;fontSize=14;fontColor=#000000;strokeWidth=1;align=center;verticalAlign=middle;fontStyle=0;fontFamily=Georgia;fillStyle=auto;fillColor=#E6E6E6;" vertex="1" parent="kPeBdNNHWxssJcFeY2An-1219">
          <mxGeometry x="11.628366013071854" y="273.09627350925643" width="55.44640522875817" height="73.02603048561632" as="geometry" />
        </mxCell>
        <mxCell id="kPeBdNNHWxssJcFeY2An-1169" value="59.1%" style="rounded=0;whiteSpace=wrap;html=1;glass=0;labelBackgroundColor=none;sketch=0;fontSize=14;fontColor=#000000;strokeWidth=1;align=center;verticalAlign=middle;fontStyle=0;fontFamily=Georgia;fillStyle=auto;fillColor=#E6E6E6;" vertex="1" parent="kPeBdNNHWxssJcFeY2An-1219">
          <mxGeometry x="117.76862745098038" y="142.50854840556622" width="55.44640522875817" height="203.61375558930666" as="geometry" />
        </mxCell>
        <mxCell id="kPeBdNNHWxssJcFeY2An-1170" value="39.0%" style="rounded=0;whiteSpace=wrap;html=1;glass=0;labelBackgroundColor=none;sketch=0;fontSize=14;fontColor=#000000;strokeWidth=1;align=center;verticalAlign=middle;fontStyle=0;fontFamily=Georgia;fillStyle=auto;fillColor=#E6E6E6;" vertex="1" parent="kPeBdNNHWxssJcFeY2An-1219">
          <mxGeometry x="223.1167973856211" y="211.23893003908756" width="55.44640522875817" height="134.8833739557854" as="geometry" />
        </mxCell>
        <mxCell id="kPeBdNNHWxssJcFeY2An-1171" value="87.2%" style="rounded=0;whiteSpace=wrap;html=1;glass=0;labelBackgroundColor=none;sketch=0;fontSize=14;fontColor=#000000;strokeWidth=1;align=center;verticalAlign=middle;fontStyle=0;fontFamily=Georgia;fillStyle=auto;fillColor=#E6E6E6;" vertex="1" parent="kPeBdNNHWxssJcFeY2An-1219">
          <mxGeometry x="329.25705882352963" y="48.00427365947451" width="55.44640522875817" height="298.1180303353984" as="geometry" />
        </mxCell>
        <mxCell id="kPeBdNNHWxssJcFeY2An-1172" value="10.4%" style="rounded=0;whiteSpace=wrap;html=1;glass=0;labelBackgroundColor=none;sketch=0;fontSize=14;fontColor=#000000;strokeWidth=1;align=center;verticalAlign=middle;fontStyle=0;fontFamily=Georgia;fillStyle=auto;fillColor=#E6E6E6;" vertex="1" parent="kPeBdNNHWxssJcFeY2An-1219">
          <mxGeometry x="434.6052287581699" y="310.0388536372743" width="55.44640522875817" height="36.08345035759865" as="geometry" />
        </mxCell>
        <mxCell id="kPeBdNNHWxssJcFeY2An-1221" style="edgeStyle=orthogonalEdgeStyle;rounded=0;sketch=0;orthogonalLoop=1;jettySize=auto;html=1;exitX=0.5;exitY=1;exitDx=0;exitDy=0;fontFamily=Helvetica;fontSize=36;fontColor=#E6E6E6;endArrow=classicThin;endFill=1;startSize=10;endSize=10;strokeColor=#111314;strokeWidth=4;align=center;" edge="1" parent="1" source="kPeBdNNHWxssJcFeY2An-1216">
          <mxGeometry relative="1" as="geometry">
            <mxPoint x="1172" y="1121" as="targetPoint" />
            <Array as="points">
              <mxPoint x="424" y="1203" />
              <mxPoint x="1172" y="1203" />
            </Array>
          </mxGeometry>
        </mxCell>
        <mxCell id="kPeBdNNHWxssJcFeY2An-1190" value="Multilayer perceptron" style="rounded=1;whiteSpace=wrap;html=1;shadow=0;glass=0;labelBackgroundColor=none;sketch=0;fontFamily=Georgia;fontSize=32;fontColor=#000000;strokeWidth=2;align=left;opacity=20;spacingLeft=15;dashed=1;dashPattern=1 2;fillColor=#67AB9F;" vertex="1" parent="1">
          <mxGeometry x="118.5395" y="961.1194999999999" width="609.8413" height="80" as="geometry" />
        </mxCell>
        <mxCell id="kPeBdNNHWxssJcFeY2An-1213" value="ReLU" style="ellipse;whiteSpace=wrap;html=1;aspect=fixed;rounded=1;shadow=0;glass=0;labelBackgroundColor=none;sketch=0;fontFamily=Georgia;fontSize=16;fontColor=#000000;strokeColor=#000000;strokeWidth=1;opacity=70;align=center;fillColor=none;" vertex="1" parent="1">
          <mxGeometry x="653.09" y="971.12" width="60" height="60" as="geometry" />
        </mxCell>
        <mxCell id="kPeBdNNHWxssJcFeY2An-1216" value="Linear layer" style="rounded=1;whiteSpace=wrap;html=1;shadow=0;glass=0;labelBackgroundColor=none;sketch=0;fontFamily=Georgia;fontSize=32;fontColor=#000000;strokeWidth=2;align=left;opacity=20;spacingLeft=15;fillColor=#67AB9F;" vertex="1" parent="1">
          <mxGeometry x="118.54" y="1041.12" width="609.84" height="80" as="geometry" />
        </mxCell>
        <mxCell id="kPeBdNNHWxssJcFeY2An-1217" value="&lt;div style=&quot;font-size: 18px;&quot;&gt;$$\sigma | \Sigma$$&lt;/div&gt;" style="ellipse;whiteSpace=wrap;html=1;aspect=fixed;rounded=1;shadow=0;glass=0;labelBackgroundColor=none;sketch=0;fontFamily=Georgia;fontSize=18;fontColor=#000000;strokeColor=#000000;strokeWidth=1;opacity=70;align=center;fillColor=none;" vertex="1" parent="1">
          <mxGeometry x="653.09" y="1051.12" width="60" height="60" as="geometry" />
        </mxCell>
        <mxCell id="kPeBdNNHWxssJcFeY2An-1225" value="word embeddings" style="shape=curlyBracket;whiteSpace=wrap;html=1;rounded=1;shadow=0;glass=0;labelBackgroundColor=none;sketch=0;fontFamily=Georgia;fontSize=25;fontColor=#000000;strokeColor=#000000;strokeWidth=2;align=right;fillColor=none;labelPosition=left;verticalLabelPosition=middle;verticalAlign=middle;" vertex="1" parent="1">
          <mxGeometry x="96" y="175.47" width="20" height="120" as="geometry" />
        </mxCell>
        <mxCell id="kPeBdNNHWxssJcFeY2An-1226" value="prosodic features" style="shape=curlyBracket;whiteSpace=wrap;html=1;rounded=1;flipH=1;shadow=0;glass=0;labelBackgroundColor=none;sketch=0;fontFamily=Georgia;fontSize=25;fontColor=#000000;strokeColor=#000000;strokeWidth=2;fillColor=none;align=left;labelPosition=right;verticalLabelPosition=middle;verticalAlign=middle;" vertex="1" parent="1">
          <mxGeometry x="1426.07" y="178" width="20" height="120" as="geometry" />
        </mxCell>
        <mxCell id="kPeBdNNHWxssJcFeY2An-1228" value="past context" style="shape=curlyBracket;whiteSpace=wrap;html=1;rounded=1;shadow=0;glass=0;labelBackgroundColor=none;sketch=0;fontFamily=Georgia;fontSize=25;fontColor=#000000;strokeColor=#000000;strokeWidth=2;fillColor=none;align=center;rotation=90;labelPosition=left;verticalLabelPosition=middle;verticalAlign=middle;horizontal=0;" vertex="1" parent="1">
          <mxGeometry x="256.57949999999994" y="-106.5305" width="20" height="277" as="geometry" />
        </mxCell>
        <mxCell id="kPeBdNNHWxssJcFeY2An-1229" value="future context" style="shape=curlyBracket;whiteSpace=wrap;html=1;rounded=1;shadow=0;glass=0;labelBackgroundColor=none;sketch=0;fontFamily=Georgia;fontSize=25;fontColor=#000000;strokeColor=#000000;strokeWidth=2;fillColor=none;align=center;rotation=90;labelPosition=left;verticalLabelPosition=middle;verticalAlign=middle;horizontal=0;" vertex="1" parent="1">
          <mxGeometry x="571.5389999999999" y="-106.531" width="20" height="277" as="geometry" />
        </mxCell>
        <mxCell id="kPeBdNNHWxssJcFeY2An-1230" value="past context" style="shape=curlyBracket;whiteSpace=wrap;html=1;rounded=1;shadow=0;glass=0;labelBackgroundColor=none;sketch=0;fontFamily=Georgia;fontSize=25;fontColor=#000000;strokeColor=#000000;strokeWidth=2;fillColor=none;align=center;rotation=90;labelPosition=left;verticalLabelPosition=middle;verticalAlign=middle;horizontal=0;" vertex="1" parent="1">
          <mxGeometry x="951.1189999999999" y="-112.001" width="20" height="277" as="geometry" />
        </mxCell>
        <mxCell id="kPeBdNNHWxssJcFeY2An-1231" value="future context" style="shape=curlyBracket;whiteSpace=wrap;html=1;rounded=1;shadow=0;glass=0;labelBackgroundColor=none;sketch=0;fontFamily=Georgia;fontSize=25;fontColor=#000000;strokeColor=#000000;strokeWidth=2;fillColor=none;align=center;rotation=90;labelPosition=left;verticalLabelPosition=middle;verticalAlign=middle;horizontal=0;" vertex="1" parent="1">
          <mxGeometry x="1266.0784999999998" y="-112.00150000000001" width="20" height="277" as="geometry" />
        </mxCell>
        <mxCell id="kPeBdNNHWxssJcFeY2An-1232" value="" style="shape=orEllipse;perimeter=ellipsePerimeter;whiteSpace=wrap;html=1;backgroundOutline=1;rounded=0;shadow=0;glass=0;labelBackgroundColor=none;sketch=0;fontFamily=Georgia;fontSize=18;fontColor=#000000;strokeColor=#000000;strokeWidth=2;fillColor=none;align=center;" vertex="1" parent="1">
          <mxGeometry x="396.45000000000005" y="787" width="60" height="60" as="geometry" />
        </mxCell>
      </root>
    </mxGraphModel>
  </diagram>
</mxfile>
